  0
SECTION
  2
HEADER
  9
$ACADVER
  1
AC1015
  9
$ACADMAINTVER
 70
     6
  9
$DWGCODEPAGE
  3
ANSI_1252
  9
$INSBASE
 10
0.0
 20
0.0
 30
0.0
  9
$EXTMIN
 10
41.91270747988167
 20
-10.17046623456557
 30
0.0
  9
$EXTMAX
 10
432.2281945276502
 20
262.6986373039017
 30
0.0
  9
$LIMMIN
 10
0.0
 20
0.0
  9
$LIMMAX
 10
12.0
 20
9.0
  9
$ORTHOMODE
 70
     0
  9
$REGENMODE
 70
     1
  9
$FILLMODE
 70
     1
  9
$QTEXTMODE
 70
     0
  9
$MIRRTEXT
 70
     0
  9
$LTSCALE
 40
1.0
  9
$ATTMODE
 70
     1
  9
$TEXTSIZE
 40
0.2
  9
$TRACEWID
 40
0.05
  9
$TEXTSTYLE
  7
Standard
  9
$CLAYER
  8
0
  9
$CELTYPE
  6
ByLayer
  9
$CECOLOR
 62
   256
  9
$CELTSCALE
 40
1.0
  9
$DISPSILH
 70
     0
  9
$DIMSCALE
 40
1.0
  9
$DIMASZ
 40
0.18
  9
$DIMEXO
 40
0.0625
  9
$DIMDLI
 40
0.38
  9
$DIMRND
 40
0.0
  9
$DIMDLE
 40
0.0
  9
$DIMEXE
 40
0.18
  9
$DIMTP
 40
0.0
  9
$DIMTM
 40
0.0
  9
$DIMTXT
 40
0.18
  9
$DIMCEN
 40
0.09
  9
$DIMTSZ
 40
0.0
  9
$DIMTOL
 70
     0
  9
$DIMLIM
 70
     0
  9
$DIMTIH
 70
     1
  9
$DIMTOH
 70
     1
  9
$DIMSE1
 70
     0
  9
$DIMSE2
 70
     0
  9
$DIMTAD
 70
     0
  9
$DIMZIN
 70
     0
  9
$DIMBLK
  1

  9
$DIMASO
 70
     1
  9
$DIMSHO
 70
     1
  9
$DIMPOST
  1

  9
$DIMAPOST
  1

  9
$DIMALT
 70
     0
  9
$DIMALTD
 70
     2
  9
$DIMALTF
 40
25.4
  9
$DIMLFAC
 40
1.0
  9
$DIMTOFL
 70
     0
  9
$DIMTVP
 40
0.0
  9
$DIMTIX
 70
     0
  9
$DIMSOXD
 70
     0
  9
$DIMSAH
 70
     0
  9
$DIMBLK1
  1

  9
$DIMBLK2
  1

  9
$DIMSTYLE
  2
Standard
  9
$DIMCLRD
 70
     0
  9
$DIMCLRE
 70
     0
  9
$DIMCLRT
 70
     0
  9
$DIMTFAC
 40
1.0
  9
$DIMGAP
 40
0.09
  9
$DIMJUST
 70
     0
  9
$DIMSD1
 70
     0
  9
$DIMSD2
 70
     0
  9
$DIMTOLJ
 70
     1
  9
$DIMTZIN
 70
     0
  9
$DIMALTZ
 70
     0
  9
$DIMALTTZ
 70
     0
  9
$DIMUPT
 70
     0
  9
$DIMDEC
 70
     4
  9
$DIMTDEC
 70
     4
  9
$DIMALTU
 70
     2
  9
$DIMALTTD
 70
     2
  9
$DIMTXSTY
  7
Standard
  9
$DIMAUNIT
 70
     0
  9
$DIMADEC
 70
     0
  9
$DIMALTRND
 40
0.0
  9
$DIMAZIN
 70
     0
  9
$DIMDSEP
 70
    46
  9
$DIMATFIT
 70
     3
  9
$DIMFRAC
 70
     0
  9
$DIMLDRBLK
  1

  9
$DIMLUNIT
 70
     2
  9
$DIMLWD
 70
    -2
  9
$DIMLWE
 70
    -2
  9
$DIMTMOVE
 70
     0
  9
$LUNITS
 70
     2
  9
$LUPREC
 70
     4
  9
$SKETCHINC
 40
0.1
  9
$FILLETRAD
 40
1.0
  9
$AUNITS
 70
     0
  9
$AUPREC
 70
     0
  9
$MENU
  1
.
  9
$ELEVATION
 40
0.0
  9
$PELEVATION
 40
0.0
  9
$THICKNESS
 40
0.0
  9
$LIMCHECK
 70
     0
  9
$CHAMFERA
 40
0.0
  9
$CHAMFERB
 40
0.0
  9
$CHAMFERC
 40
0.0
  9
$CHAMFERD
 40
0.0
  9
$SKPOLY
 70
     0
  9
$TDCREATE
 40
2455575.701514375
  9
$TDUCREATE
 40
2455575.909847708
  9
$TDUPDATE
 40
2458126.453510012
  9
$TDUUPDATE
 40
2458126.661843345
  9
$TDINDWG
 40
0.1885999884
  9
$TDUSRTIMER
 40
2458126.646229629
  9
$USRTIMER
 70
     1
  9
$ANGBASE
 50
0.0
  9
$ANGDIR
 70
     0
  9
$PDMODE
 70
     0
  9
$PDSIZE
 40
0.0
  9
$PLINEWID
 40
0.0
  9
$SPLFRAME
 70
     0
  9
$SPLINETYPE
 70
     6
  9
$SPLINESEGS
 70
     8
  9
$HANDSEED
  5
F58
  9
$SURFTAB1
 70
     6
  9
$SURFTAB2
 70
     6
  9
$SURFTYPE
 70
     6
  9
$SURFU
 70
     6
  9
$SURFV
 70
     6
  9
$UCSBASE
  2

  9
$UCSNAME
  2

  9
$UCSORG
 10
0.0
 20
0.0
 30
0.0
  9
$UCSXDIR
 10
1.0
 20
0.0
 30
0.0
  9
$UCSYDIR
 10
0.0
 20
1.0
 30
0.0
  9
$UCSORTHOREF
  2

  9
$UCSORTHOVIEW
 70
     1
  9
$UCSORGTOP
 10
0.0
 20
0.0
 30
0.0
  9
$UCSORGBOTTOM
 10
0.0
 20
0.0
 30
0.0
  9
$UCSORGLEFT
 10
0.0
 20
0.0
 30
0.0
  9
$UCSORGRIGHT
 10
0.0
 20
0.0
 30
0.0
  9
$UCSORGFRONT
 10
0.0
 20
0.0
 30
0.0
  9
$UCSORGBACK
 10
0.0
 20
0.0
 30
0.0
  9
$PUCSBASE
  2

  9
$PUCSNAME
  2

  9
$PUCSORG
 10
0.0
 20
0.0
 30
0.0
  9
$PUCSXDIR
 10
1.0
 20
0.0
 30
0.0
  9
$PUCSYDIR
 10
0.0
 20
1.0
 30
0.0
  9
$PUCSORTHOREF
  2

  9
$PUCSORTHOVIEW
 70
     0
  9
$PUCSORGTOP
 10
0.0
 20
0.0
 30
0.0
  9
$PUCSORGBOTTOM
 10
0.0
 20
0.0
 30
0.0
  9
$PUCSORGLEFT
 10
0.0
 20
0.0
 30
0.0
  9
$PUCSORGRIGHT
 10
0.0
 20
0.0
 30
0.0
  9
$PUCSORGFRONT
 10
0.0
 20
0.0
 30
0.0
  9
$PUCSORGBACK
 10
0.0
 20
0.0
 30
0.0
  9
$USERI1
 70
     0
  9
$USERI2
 70
     0
  9
$USERI3
 70
     0
  9
$USERI4
 70
     0
  9
$USERI5
 70
     0
  9
$USERR1
 40
0.0
  9
$USERR2
 40
0.0
  9
$USERR3
 40
0.0
  9
$USERR4
 40
0.0
  9
$USERR5
 40
0.0
  9
$WORLDVIEW
 70
     1
  9
$SHADEDGE
 70
     3
  9
$SHADEDIF
 70
    70
  9
$TILEMODE
 70
     1
  9
$MAXACTVP
 70
    64
  9
$PINSBASE
 10
0.0
 20
0.0
 30
0.0
  9
$PLIMCHECK
 70
     0
  9
$PEXTMIN
 10
0.0
 20
0.0
 30
0.0
  9
$PEXTMAX
 10
0.0
 20
0.0
 30
0.0
  9
$PLIMMIN
 10
0.0
 20
0.0
  9
$PLIMMAX
 10
0.0
 20
0.0
  9
$UNITMODE
 70
     0
  9
$VISRETAIN
 70
     1
  9
$PLINEGEN
 70
     0
  9
$PSLTSCALE
 70
     1
  9
$TREEDEPTH
 70
  3020
  9
$CMLSTYLE
  2
Standard
  9
$CMLJUST
 70
     0
  9
$CMLSCALE
 40
1.0
  9
$PROXYGRAPHICS
 70
     1
  9
$MEASUREMENT
 70
     0
  9
$CELWEIGHT
370
    -1
  9
$ENDCAPS
280
     0
  9
$JOINSTYLE
280
     0
  9
$LWDISPLAY
290
     0
  9
$INSUNITS
 70
     4
  9
$HYPERLINKBASE
  1

  9
$STYLESHEET
  1

  9
$XEDIT
290
     1
  9
$CEPSNTYPE
380
     0
  9
$PSTYLEMODE
290
     1
  9
$FINGERPRINTGUID
  2
{FDEAD576-A652-11D2-9A35-0060089B3A3F}
  9
$VERSIONGUID
  2
{B24A1A0D-8368-4D05-847C-226227F49D99}
  9
$EXTNAMES
290
     1
  9
$PSVPSCALE
 40
0.0
  9
$OLESTARTUP
290
     0
  0
ENDSEC
  0
SECTION
  2
CLASSES
  0
CLASS
  1
ACDBDICTIONARYWDFLT
  2
AcDbDictionaryWithDefault
  3
ObjectDBX Classes
 90
        0
280
     0
281
     0
  0
CLASS
  1
ACDBPLACEHOLDER
  2
AcDbPlaceHolder
  3
ObjectDBX Classes
 90
        0
280
     0
281
     0
  0
CLASS
  1
LAYOUT
  2
AcDbLayout
  3
ObjectDBX Classes
 90
        0
280
     0
281
     0
  0
CLASS
  1
DICTIONARYVAR
  2
AcDbDictionaryVar
  3
ObjectDBX Classes
 90
        0
280
     0
281
     0
  0
CLASS
  1
VISUALSTYLE
  2
AcDbVisualStyle
  3
ObjectDBX Classes
 90
     4095
280
     0
281
     0
  0
CLASS
  1
SCALE
  2
AcDbScale
  3
ObjectDBX Classes
 90
     1153
280
     0
281
     0
  0
CLASS
  1
MATERIAL
  2
AcDbMaterial
  3
ObjectDBX Classes
 90
     1153
280
     0
281
     0
  0
CLASS
  1
TABLESTYLE
  2
AcDbTableStyle
  3
ObjectDBX Classes
 90
     4095
280
     0
281
     0
  0
CLASS
  1
MLEADERSTYLE
  2
AcDbMLeaderStyle
  3
ACDB_MLEADERSTYLE_CLASS
 90
     4095
280
     0
281
     0
  0
CLASS
  1
SUN
  2
AcDbSun
  3
SCENEOE
 90
     1153
280
     0
281
     0
  0
CLASS
  1
RASTERVARIABLES
  2
AcDbRasterVariables
  3
ISM
 90
        0
280
     0
281
     0
  0
CLASS
  1
CELLSTYLEMAP
  2
AcDbCellStyleMap
  3
ObjectDBX Classes
 90
     1152
280
     0
281
     0
  0
ENDSEC
  0
SECTION
  2
TABLES
  0
TABLE
  2
VPORT
  5
8
330
0
100
AcDbSymbolTable
 70
     3
  0
VPORT
  5
C4E
330
8
100
AcDbSymbolTableRecord
100
AcDbViewportTableRecord
  2
*Active
 70
     0
 10
0.0
 20
0.0
 11
1.0
 21
1.0
 12
355.8758994306082
 22
43.42816157276627
 13
0.0
 23
0.0
 14
0.5
 24
0.5
 15
0.5
 25
0.5
 16
0.0
 26
0.0
 36
1.0
 17
-16.58198710924557
 27
63.23106063819111
 37
90.88949614741995
 40
392.0571072799694
 41
2.196403872752421
 42
50.0
 43
0.0
 44
0.0
 50
0.0
 51
0.0
 71
    16
 72
  1000
 73
     1
 74
     2
 75
     0
 76
     0
 77
     0
 78
     0
281
     5
 65
     1
110
0.0
120
0.0
130
0.0
111
1.0
121
0.0
131
0.0
112
0.0
122
1.0
132
0.0
 79
     1
146
0.0
  0
ENDTAB
  0
TABLE
  2
LTYPE
  5
5
330
0
100
AcDbSymbolTable
 70
     1
  0
LTYPE
  5
14
330
5
100
AcDbSymbolTableRecord
100
AcDbLinetypeTableRecord
  2
ByBlock
 70
     0
  3

 72
    65
 73
     0
 40
0.0
  0
LTYPE
  5
15
330
5
100
AcDbSymbolTableRecord
100
AcDbLinetypeTableRecord
  2
ByLayer
 70
     0
  3

 72
    65
 73
     0
 40
0.0
  0
LTYPE
  5
16
330
5
100
AcDbSymbolTableRecord
100
AcDbLinetypeTableRecord
  2
Continuous
 70
     0
  3
Solid line
 72
    65
 73
     0
 40
0.0
  0
ENDTAB
  0
TABLE
  2
LAYER
  5
2
330
0
100
AcDbSymbolTable
 70
     4
  0
LAYER
  5
10
330
2
100
AcDbSymbolTableRecord
100
AcDbLayerTableRecord
  2
0
 70
     0
 62
     7
  6
Continuous
370
    -3
390
F
  0
LAYER
  5
7AF
330
2
100
AcDbSymbolTableRecord
100
AcDbLayerTableRecord
  2
base
 70
     0
 62
     7
  6
Continuous
370
    -3
390
F
  0
LAYER
  5
7B0
330
2
100
AcDbSymbolTableRecord
100
AcDbLayerTableRecord
  2
overlay
 70
     0
 62
     5
  6
Continuous
370
    -3
390
F
  0
LAYER
  5
C25
330
2
100
AcDbSymbolTableRecord
100
AcDbLayerTableRecord
  2
cenTri
 70
     0
 62
     3
  6
Continuous
370
    -3
390
F
  0
ENDTAB
  0
TABLE
  2
STYLE
  5
3
330
0
100
AcDbSymbolTable
 70
     1
  0
STYLE
  5
11
330
3
100
AcDbSymbolTableRecord
100
AcDbTextStyleTableRecord
  2
Standard
 70
     0
 40
0.0
 41
1.0
 50
0.0
 71
     0
 42
0.2
  3
txt
  4

  0
ENDTAB
  0
TABLE
  2
VIEW
  5
6
330
0
100
AcDbSymbolTable
 70
     0
  0
ENDTAB
  0
TABLE
  2
UCS
  5
7
330
0
100
AcDbSymbolTable
 70
     0
  0
ENDTAB
  0
TABLE
  2
APPID
  5
9
330
0
100
AcDbSymbolTable
 70
     1
  0
APPID
  5
12
330
9
100
AcDbSymbolTableRecord
100
AcDbRegAppTableRecord
  2
ACAD
 70
     0
  0
ENDTAB
  0
TABLE
  2
DIMSTYLE
  5
A
330
0
100
AcDbSymbolTable
 70
     1
100
AcDbDimStyleTable
  0
DIMSTYLE
105
27
330
A
100
AcDbSymbolTableRecord
100
AcDbDimStyleTableRecord
  2
Standard
 70
     0
178
     0
340
11
  0
ENDTAB
  0
TABLE
  2
BLOCK_RECORD
  5
1
330
0
100
AcDbSymbolTable
 70
     1
  0
BLOCK_RECORD
  5
1F
330
1
100
AcDbSymbolTableRecord
100
AcDbBlockTableRecord
  2
*Model_Space
340
22
  0
BLOCK_RECORD
  5
58
330
1
100
AcDbSymbolTableRecord
100
AcDbBlockTableRecord
  2
*Paper_Space
340
59
  0
BLOCK_RECORD
  5
5D
330
1
100
AcDbSymbolTableRecord
100
AcDbBlockTableRecord
  2
*Paper_Space0
340
5E
  0
ENDTAB
  0
ENDSEC
  0
SECTION
  2
BLOCKS
  0
BLOCK
  5
20
330
1F
100
AcDbEntity
  8
0
100
AcDbBlockBegin
  2
*Model_Space
 70
     0
 10
0.0
 20
0.0
 30
0.0
  3
*Model_Space
  1

  0
ENDBLK
  5
21
330
1F
100
AcDbEntity
  8
0
100
AcDbBlockEnd
  0
BLOCK
  5
5A
330
58
100
AcDbEntity
 67
     1
  8
0
100
AcDbBlockBegin
  2
*Paper_Space
 70
     0
 10
0.0
 20
0.0
 30
0.0
  3
*Paper_Space
  1

  0
ENDBLK
  5
5B
330
58
100
AcDbEntity
 67
     1
  8
0
100
AcDbBlockEnd
  0
BLOCK
  5
5F
330
5D
100
AcDbEntity
  8
0
100
AcDbBlockBegin
  2
*Paper_Space0
 70
     0
 10
0.0
 20
0.0
 30
0.0
  3
*Paper_Space0
  1

  0
ENDBLK
  5
60
330
5D
100
AcDbEntity
  8
0
100
AcDbBlockEnd
  0
ENDSEC
  0
SECTION
  2
ENTITIES
  0
LINE
  5
868
330
1F
100
AcDbEntity
  8
0
 62
     7
100
AcDbLine
 10
95.74131832518083
 20
140.4230373039016
 30
0.0
 11
89.39131832518083
 21
140.4230373039016
 31
0.0
  0
LINE
  5
869
330
1F
100
AcDbEntity
  8
0
 62
     7
100
AcDbLine
 10
57.64131832518086
 20
135.6986373039016
 30
0.0
 11
57.64131832518086
 21
140.4230373039016
 31
0.0
  0
LINE
  5
86A
330
1F
100
AcDbEntity
  8
0
 62
     7
100
AcDbLine
 10
63.99131832518086
 20
140.4230373039016
 30
0.0
 11
57.64131832518086
 21
140.4230373039016
 31
0.0
  0
LINE
  5
86B
330
1F
100
AcDbEntity
  8
0
 62
     7
100
AcDbLine
 10
159.2413183251808
 20
257.9742373039016
 30
0.0
 11
159.2413183251808
 21
262.6986373039016
 31
0.0
  0
LINE
  5
86C
330
1F
100
AcDbEntity
  8
0
 62
     7
100
AcDbLine
 10
167.2169183251808
 20
256.3486373039016
 30
0.0
 11
167.2169183251808
 21
262.6986373039016
 31
0.0
  0
LINE
  5
86D
330
1F
100
AcDbEntity
  8
0
 62
     7
100
AcDbLine
 10
49.66571832518085
 20
135.6986373039016
 30
0.0
 11
49.66571832518085
 21
142.0486373039016
 31
0.0
  0
LINE
  5
86E
330
1F
100
AcDbEntity
  8
0
 62
     7
100
AcDbLine
 10
57.64131832518086
 20
135.6986373039016
 30
0.0
 11
49.66571832518085
 21
135.6986373039016
 31
0.0
  0
LINE
  5
86F
330
1F
100
AcDbEntity
  8
0
 62
     7
100
AcDbLine
 10
73.66270747988167
 20
-4.417496067805306
 30
0.0
 11
73.66270747988167
 21
-9.141896067805305
 31
0.0
  0
LINE
  5
870
330
1F
100
AcDbEntity
  8
0
 62
     7
100
AcDbLine
 10
86.36270747988169
 20
113.1337039321947
 30
0.0
 11
86.36270747988169
 21
117.8581039321947
 31
0.0
  0
LINE
  5
871
330
1F
100
AcDbEntity
  8
0
 62
     7
100
AcDbLine
 10
41.91270747988167
 20
3.558103932194697
 30
0.0
 11
41.91270747988167
 21
9.90810393219467
 31
0.0
  0
LINE
  5
872
330
1F
100
AcDbEntity
  8
0
 62
     7
100
AcDbLine
 10
168.9127074798817
 20
98.80810393219468
 30
0.0
 11
168.9127074798817
 21
105.1581039321947
 31
0.0
  0
LINE
  5
873
330
1F
100
AcDbEntity
  8
0
 62
     7
100
AcDbLine
 10
46.63710747988166
 20
-4.417496067805306
 30
0.0
 11
54.61270747988168
 21
-4.417496067805306
 31
0.0
  0
LINE
  5
874
330
1F
100
AcDbEntity
  8
0
 62
     7
100
AcDbLine
 10
46.63710747988166
 20
-4.417496067805306
 30
0.0
 11
46.63710747988166
 21
3.558103932194697
 31
0.0
  0
LINE
  5
875
330
1F
100
AcDbEntity
  8
0
 62
     7
100
AcDbLine
 10
149.8627074798817
 20
117.8581039321947
 30
0.0
 11
156.2127074798817
 21
117.8581039321947
 31
0.0
  0
LINE
  5
876
330
1F
100
AcDbEntity
  8
0
 62
     7
100
AcDbLine
 10
143.5127074798817
 20
117.8581039321947
 30
0.0
 11
149.8627074798817
 21
117.8581039321947
 31
0.0
  0
LINE
  5
877
330
1F
100
AcDbEntity
  8
0
 62
     7
100
AcDbLine
 10
164.1883074798817
 20
105.1581039321947
 30
0.0
 11
164.1883074798817
 21
113.1337039321947
 31
0.0
  0
LINE
  5
878
330
1F
100
AcDbEntity
  8
0
 62
     7
100
AcDbLine
 10
156.2127074798817
 20
113.1337039321947
 30
0.0
 11
164.1883074798817
 21
113.1337039321947
 31
0.0
  0
LINE
  5
879
330
1F
100
AcDbEntity
  8
0
 62
     7
100
AcDbLine
 10
73.6627074798817
 20
113.1337039321947
 30
0.0
 11
73.6627074798817
 21
117.8581039321947
 31
0.0
  0
LINE
  5
87A
330
1F
100
AcDbEntity
  8
0
 62
     7
100
AcDbLine
 10
67.31270747988168
 20
117.8581039321947
 30
0.0
 11
73.6627074798817
 21
117.8581039321947
 31
0.0
  0
LINE
  5
87B
330
1F
100
AcDbEntity
  8
0
 62
     7
100
AcDbLine
 10
86.36270747988166
 20
-9.141896067805305
 30
0.0
 11
86.36270747988166
 21
-4.417496067805306
 31
0.0
  0
LINE
  5
87C
330
1F
100
AcDbEntity
  8
0
 62
     7
100
AcDbLine
 10
137.1627074798817
 20
-9.141896067805305
 30
0.0
 11
143.5127074798817
 21
-9.141896067805305
 31
0.0
  0
LINE
  5
87D
330
1F
100
AcDbEntity
  8
0
 62
     7
100
AcDbLine
 10
54.61270747988168
 20
-9.141896067805305
 30
0.0
 11
60.96270747988168
 21
-9.141896067805305
 31
0.0
  0
LINE
  5
87E
330
1F
100
AcDbEntity
  8
0
 62
     7
100
AcDbLine
 10
60.96270747988168
 20
-9.141896067805305
 30
0.0
 11
67.31270747988168
 21
-9.141896067805305
 31
0.0
  0
LINE
  5
87F
330
1F
100
AcDbEntity
  8
0
 62
     7
100
AcDbLine
 10
152.8913183251808
 20
257.9742373039016
 30
0.0
 11
159.2413183251808
 21
257.9742373039016
 31
0.0
  0
LINE
  5
880
330
1F
100
AcDbEntity
  8
0
 62
     7
100
AcDbLine
 10
54.6127074798817
 20
113.1337039321947
 30
0.0
 11
54.6127074798817
 21
117.8581039321947
 31
0.0
  0
LINE
  5
881
330
1F
100
AcDbEntity
  8
0
 62
     7
100
AcDbLine
 10
46.63710747988169
 20
113.1337039321947
 30
0.0
 11
54.6127074798817
 21
113.1337039321947
 31
0.0
  0
LINE
  5
882
330
1F
100
AcDbEntity
  8
0
 62
     7
100
AcDbLine
 10
73.6627074798817
 20
113.1337039321947
 30
0.0
 11
80.0127074798817
 21
113.1337039321947
 31
0.0
  0
LINE
  5
883
330
1F
100
AcDbEntity
  8
0
 62
     7
100
AcDbLine
 10
80.0127074798817
 20
113.1337039321947
 30
0.0
 11
86.36270747988169
 21
113.1337039321947
 31
0.0
  0
LINE
  5
884
330
1F
100
AcDbEntity
  8
0
 62
     7
100
AcDbLine
 10
46.63710747988169
 20
105.1581039321947
 30
0.0
 11
46.63710747988169
 21
113.1337039321947
 31
0.0
  0
LINE
  5
885
330
1F
100
AcDbEntity
  8
0
 62
     7
100
AcDbLine
 10
41.91270747988168
 20
105.1581039321947
 30
0.0
 11
46.63710747988169
 21
105.1581039321947
 31
0.0
  0
LINE
  5
886
330
1F
100
AcDbEntity
  8
0
 62
     7
100
AcDbLine
 10
41.91270747988168
 20
86.1081039321947
 30
0.0
 11
46.63710747988168
 21
86.1081039321947
 31
0.0
  0
LINE
  5
887
330
1F
100
AcDbEntity
  8
0
 62
     7
100
AcDbLine
 10
46.63710747988168
 20
79.75810393219467
 30
0.0
 11
46.63710747988168
 21
86.1081039321947
 31
0.0
  0
LINE
  5
888
330
1F
100
AcDbEntity
  8
0
 62
     7
100
AcDbLine
 10
46.63710747988168
 20
73.40810393219468
 30
0.0
 11
46.63710747988168
 21
79.75810393219467
 31
0.0
  0
LINE
  5
889
330
1F
100
AcDbEntity
  8
0
 62
     7
100
AcDbLine
 10
41.91270747988168
 20
73.40810393219468
 30
0.0
 11
46.63710747988168
 21
73.40810393219468
 31
0.0
  0
LINE
  5
88A
330
1F
100
AcDbEntity
  8
0
 62
     7
100
AcDbLine
 10
41.91270747988167
 20
3.558103932194697
 30
0.0
 11
46.63710747988166
 21
3.558103932194697
 31
0.0
  0
LINE
  5
88B
330
1F
100
AcDbEntity
  8
0
 62
     7
100
AcDbLine
 10
137.1627074798817
 20
117.8581039321947
 30
0.0
 11
143.5127074798817
 21
117.8581039321947
 31
0.0
  0
LINE
  5
88C
330
1F
100
AcDbEntity
  8
0
 62
     7
100
AcDbLine
 10
60.96270747988169
 20
117.8581039321947
 30
0.0
 11
67.31270747988168
 21
117.8581039321947
 31
0.0
  0
LINE
  5
88D
330
1F
100
AcDbEntity
  8
0
 62
     7
100
AcDbLine
 10
54.6127074798817
 20
117.8581039321947
 30
0.0
 11
60.96270747988169
 21
117.8581039321947
 31
0.0
  0
LINE
  5
88E
330
1F
100
AcDbEntity
  8
0
 62
     7
100
AcDbLine
 10
41.91270747988167
 20
9.90810393219467
 30
0.0
 11
41.91270747988167
 21
16.25810393219465
 31
0.0
  0
LINE
  5
88F
330
1F
100
AcDbEntity
  8
0
 62
     7
100
AcDbLine
 10
41.91270747988167
 20
16.25810393219465
 30
0.0
 11
41.91270747988167
 21
22.60810393219462
 31
0.0
  0
LINE
  5
890
330
1F
100
AcDbEntity
  8
0
 62
     7
100
AcDbLine
 10
41.91270747988168
 20
86.1081039321947
 30
0.0
 11
41.91270747988168
 21
92.45810393219492
 31
0.0
  0
LINE
  5
891
330
1F
100
AcDbEntity
  8
0
 62
     7
100
AcDbLine
 10
41.91270747988168
 20
92.45810393219492
 30
0.0
 11
41.91270747988168
 21
98.80810393219468
 31
0.0
  0
LINE
  5
892
330
1F
100
AcDbEntity
  8
0
 62
     7
100
AcDbLine
 10
41.91270747988168
 20
98.80810393219468
 30
0.0
 11
41.91270747988168
 21
105.1581039321947
 31
0.0
  0
LINE
  5
893
330
1F
100
AcDbEntity
  8
0
 62
     7
100
AcDbLine
 10
149.8627074798817
 20
-9.141896067805305
 30
0.0
 11
156.2127074798817
 21
-9.141896067805305
 31
0.0
  0
LINE
  5
894
330
1F
100
AcDbEntity
  8
0
 62
     7
100
AcDbLine
 10
156.2127074798817
 20
-9.141896067805305
 30
0.0
 11
156.2127074798817
 21
-4.417496067805306
 31
0.0
  0
LINE
  5
895
330
1F
100
AcDbEntity
  8
0
 62
     7
100
AcDbLine
 10
143.5127074798817
 20
-9.141896067805305
 30
0.0
 11
149.8627074798817
 21
-9.141896067805305
 31
0.0
  0
LINE
  5
896
330
1F
100
AcDbEntity
  8
0
 62
     7
100
AcDbLine
 10
67.31270747988168
 20
-9.141896067805305
 30
0.0
 11
73.66270747988167
 21
-9.141896067805305
 31
0.0
  0
LINE
  5
897
330
1F
100
AcDbEntity
  8
0
 62
     7
100
AcDbLine
 10
54.61270747988168
 20
-9.141896067805305
 30
0.0
 11
54.61270747988168
 21
-4.417496067805306
 31
0.0
  0
LINE
  5
898
330
1F
100
AcDbEntity
  8
0
 62
     7
100
AcDbLine
 10
80.0127074798817
 20
-4.417496067805306
 30
0.0
 11
86.36270747988166
 21
-4.417496067805306
 31
0.0
  0
LINE
  5
899
330
1F
100
AcDbEntity
  8
0
 62
     7
100
AcDbLine
 10
73.66270747988167
 20
-4.417496067805306
 30
0.0
 11
80.0127074798817
 21
-4.417496067805306
 31
0.0
  0
LINE
  5
89A
330
1F
100
AcDbEntity
  8
0
 62
     7
100
AcDbLine
 10
168.9127074798817
 20
92.45810393219492
 30
0.0
 11
168.9127074798817
 21
98.80810393219468
 31
0.0
  0
LINE
  5
89B
330
1F
100
AcDbEntity
  8
0
 62
     7
100
AcDbLine
 10
168.9127074798817
 20
86.1081039321947
 30
0.0
 11
168.9127074798817
 21
92.45810393219492
 31
0.0
  0
LINE
  5
89C
330
1F
100
AcDbEntity
  8
0
 62
     7
100
AcDbLine
 10
164.1883074798817
 20
86.1081039321947
 30
0.0
 11
168.9127074798817
 21
86.1081039321947
 31
0.0
  0
LINE
  5
89D
330
1F
100
AcDbEntity
  8
0
 62
     7
100
AcDbLine
 10
164.1883074798817
 20
79.75810393219467
 30
0.0
 11
164.1883074798817
 21
86.1081039321947
 31
0.0
  0
LINE
  5
89E
330
1F
100
AcDbEntity
  8
0
 62
     7
100
AcDbLine
 10
164.1883074798817
 20
73.40810393219468
 30
0.0
 11
164.1883074798817
 21
79.75810393219467
 31
0.0
  0
LINE
  5
89F
330
1F
100
AcDbEntity
  8
0
 62
     7
100
AcDbLine
 10
164.1883074798817
 20
73.40810393219468
 30
0.0
 11
168.9127074798817
 21
73.40810393219468
 31
0.0
  0
LINE
  5
8A0
330
1F
100
AcDbEntity
  8
0
 62
     7
100
AcDbLine
 10
168.9127074798817
 20
16.25810393219465
 30
0.0
 11
168.9127074798817
 21
22.60810393219462
 31
0.0
  0
LINE
  5
8A1
330
1F
100
AcDbEntity
  8
0
 62
     7
100
AcDbLine
 10
168.9127074798817
 20
9.90810393219467
 30
0.0
 11
168.9127074798817
 21
16.25810393219465
 31
0.0
  0
LINE
  5
8A2
330
1F
100
AcDbEntity
  8
0
 62
     7
100
AcDbLine
 10
168.9127074798817
 20
3.558103932194697
 30
0.0
 11
168.9127074798817
 21
9.90810393219467
 31
0.0
  0
LINE
  5
8A3
330
1F
100
AcDbEntity
  8
0
 62
     7
100
AcDbLine
 10
164.1883074798817
 20
3.558103932194697
 30
0.0
 11
168.9127074798817
 21
3.558103932194697
 31
0.0
  0
LINE
  5
8A4
330
1F
100
AcDbEntity
  8
0
 62
     7
100
AcDbLine
 10
164.1883074798816
 20
-4.417496067805306
 30
0.0
 11
164.1883074798817
 21
3.558103932194697
 31
0.0
  0
LINE
  5
8A5
330
1F
100
AcDbEntity
  8
0
 62
     7
100
AcDbLine
 10
156.2127074798817
 20
-4.417496067805306
 30
0.0
 11
164.1883074798816
 21
-4.417496067805306
 31
0.0
  0
LINE
  5
8A6
330
1F
100
AcDbEntity
  8
0
 62
     7
100
AcDbLine
 10
164.1883074798817
 20
105.1581039321947
 30
0.0
 11
168.9127074798817
 21
105.1581039321947
 31
0.0
  0
LINE
  5
8A7
330
1F
100
AcDbEntity
  8
0
 62
     7
100
AcDbLine
 10
156.2127074798817
 20
117.8581039321947
 30
0.0
 11
156.2127074798817
 21
113.1337039321947
 31
0.0
  0
LINE
  5
8A8
330
1F
100
AcDbEntity
  8
0
 62
     7
100
AcDbLine
 10
57.64131832518086
 20
262.6986373039016
 30
0.0
 11
51.29131832518087
 21
262.6986373039016
 31
0.0
  0
LINE
  5
8AA
330
1F
100
AcDbEntity
  8
0
 62
     7
100
AcDbLine
 10
44.94131832518087
 20
249.9986373039017
 30
0.0
 11
49.66571832518085
 21
249.9986373039017
 31
0.0
  0
LINE
  5
8AB
330
1F
100
AcDbEntity
  8
0
 62
     7
100
AcDbLine
 10
44.94131832518087
 20
249.9986373039017
 30
0.0
 11
44.94131832518087
 21
256.3486373039016
 31
0.0
  0
LINE
  5
8AC
330
1F
100
AcDbEntity
  8
0
 62
     7
100
AcDbLine
 10
44.94131832518087
 20
256.3486373039016
 30
0.0
 11
44.94131832518087
 21
262.6986373039016
 31
0.0
  0
LINE
  5
8AD
330
1F
100
AcDbEntity
  8
0
 62
     7
100
AcDbLine
 10
51.29131832518087
 20
262.6986373039016
 30
0.0
 11
44.94131832518087
 21
262.6986373039016
 31
0.0
  0
LINE
  5
8AE
330
1F
100
AcDbEntity
  8
0
 62
     7
100
AcDbLine
 10
57.64131832518083
 20
257.9742373039016
 30
0.0
 11
57.64131832518086
 21
262.6986373039016
 31
0.0
  0
LINE
  5
8AF
330
1F
100
AcDbEntity
  8
0
 62
     7
100
AcDbLine
 10
167.2169183251808
 20
249.9986373039017
 30
0.0
 11
167.2169183251808
 21
256.3486373039016
 31
0.0
  0
LINE
  5
8B0
330
1F
100
AcDbEntity
  8
0
 62
     7
100
AcDbLine
 10
167.2169183251808
 20
262.6986373039016
 30
0.0
 11
159.2413183251808
 21
262.6986373039016
 31
0.0
  0
LINE
  5
8B1
330
1F
100
AcDbEntity
  8
0
 62
     7
100
AcDbLine
 10
152.8913183251808
 20
257.9742373039016
 30
0.0
 11
140.1913183251808
 21
257.9742373039016
 31
0.0
  0
LINE
  5
8B2
330
1F
100
AcDbEntity
  8
0
 62
     7
100
AcDbLine
 10
89.39131832518083
 20
257.9742373039016
 30
0.0
 11
89.39131832518083
 21
262.6986373039016
 31
0.0
  0
LINE
  5
8B3
330
1F
100
AcDbEntity
  8
0
 62
     7
100
AcDbLine
 10
89.39131832518083
 20
262.6986373039016
 30
0.0
 11
83.04131832518081
 21
262.6986373039016
 31
0.0
  0
LINE
  5
8B4
330
1F
100
AcDbEntity
  8
0
 62
     7
100
AcDbLine
 10
83.04131832518081
 20
262.6986373039016
 30
0.0
 11
76.69131832518087
 21
262.6986373039016
 31
0.0
  0
LINE
  5
8B5
330
1F
100
AcDbEntity
  8
0
 62
     7
100
AcDbLine
 10
76.69131832518084
 20
257.9742373039016
 30
0.0
 11
76.69131832518087
 21
262.6986373039016
 31
0.0
  0
LINE
  5
8B6
330
1F
100
AcDbEntity
  8
0
 62
     7
100
AcDbLine
 10
76.69131832518084
 20
257.9742373039016
 30
0.0
 11
63.99131832518086
 21
257.9742373039016
 31
0.0
  0
LINE
  5
8B7
330
1F
100
AcDbEntity
  8
0
 62
     7
100
AcDbLine
 10
63.99131832518086
 20
257.9742373039016
 30
0.0
 11
57.64131832518083
 21
257.9742373039016
 31
0.0
  0
LINE
  5
8B8
330
1F
100
AcDbEntity
  8
0
 62
     7
100
AcDbLine
 10
167.2169183251809
 20
148.3986373039016
 30
0.0
 11
167.2169183251809
 21
154.7486373039016
 31
0.0
  0
LINE
  5
8B9
330
1F
100
AcDbEntity
  8
0
 62
     7
100
AcDbLine
 10
167.2169183251809
 20
154.7486373039016
 30
0.0
 11
167.2169183251809
 21
161.0986373039016
 31
0.0
  0
LINE
  5
8BA
330
1F
100
AcDbEntity
  8
0
 62
     7
100
AcDbLine
 10
167.2169183251809
 20
173.7986373039017
 30
0.0
 11
167.2169183251809
 21
180.1486373039016
 31
0.0
  0
LINE
  5
8BB
330
1F
100
AcDbEntity
  8
0
 62
     7
100
AcDbLine
 10
167.2169183251809
 20
180.1486373039016
 30
0.0
 11
167.2169183251809
 21
186.4986373039016
 31
0.0
  0
LINE
  5
8BC
330
1F
100
AcDbEntity
  8
0
 62
     7
100
AcDbLine
 10
171.9413183251809
 20
135.6986373039016
 30
0.0
 11
171.9413183251809
 21
142.0486373039016
 31
0.0
  0
LINE
  5
8BD
330
1F
100
AcDbEntity
  8
0
 62
     7
100
AcDbLine
 10
171.9413183251809
 20
148.3986373039016
 30
0.0
 11
167.2169183251809
 21
148.3986373039016
 31
0.0
  0
LINE
  5
8BE
330
1F
100
AcDbEntity
  8
0
 62
     7
100
AcDbLine
 10
171.9413183251809
 20
142.0486373039016
 30
0.0
 11
171.9413183251809
 21
148.3986373039016
 31
0.0
  0
LINE
  5
8BF
330
1F
100
AcDbEntity
  8
0
 62
     7
100
AcDbLine
 10
171.9413183251809
 20
161.0986373039016
 30
0.0
 11
167.2169183251809
 21
161.0986373039016
 31
0.0
  0
LINE
  5
8C0
330
1F
100
AcDbEntity
  8
0
 62
     7
100
AcDbLine
 10
171.9413183251809
 20
161.0986373039016
 30
0.0
 11
171.9413183251809
 21
167.4486373039016
 31
0.0
  0
LINE
  5
8C1
330
1F
100
AcDbEntity
  8
0
 62
     7
100
AcDbLine
 10
171.9413183251809
 20
173.7986373039017
 30
0.0
 11
167.2169183251809
 21
173.7986373039017
 31
0.0
  0
LINE
  5
8C2
330
1F
100
AcDbEntity
  8
0
 62
     7
100
AcDbLine
 10
171.9413183251809
 20
167.4486373039016
 30
0.0
 11
171.9413183251809
 21
173.7986373039017
 31
0.0
  0
LINE
  5
8C3
330
1F
100
AcDbEntity
  8
0
 62
     7
100
AcDbLine
 10
171.9413183251809
 20
186.4986373039016
 30
0.0
 11
167.2169183251809
 21
186.4986373039016
 31
0.0
  0
LINE
  5
8C4
330
1F
100
AcDbEntity
  8
0
 62
     7
100
AcDbLine
 10
171.9413183251809
 20
186.4986373039016
 30
0.0
 11
171.9413183251808
 21
218.2486373039017
 31
0.0
  0
LINE
  5
8C5
330
1F
100
AcDbEntity
  8
0
 62
     7
100
AcDbLine
 10
171.9413183251808
 20
224.5986373039016
 30
0.0
 11
167.2169183251808
 21
224.5986373039016
 31
0.0
  0
LINE
  5
8C6
330
1F
100
AcDbEntity
  8
0
 62
     7
100
AcDbLine
 10
171.9413183251808
 20
218.2486373039017
 30
0.0
 11
171.9413183251808
 21
224.5986373039016
 31
0.0
  0
LINE
  5
8C7
330
1F
100
AcDbEntity
  8
0
 62
     7
100
AcDbLine
 10
140.1913183251809
 20
135.6986373039016
 30
0.0
 11
133.8413183251809
 21
135.6986373039016
 31
0.0
  0
LINE
  5
8C8
330
1F
100
AcDbEntity
  8
0
 62
     7
100
AcDbLine
 10
133.8413183251809
 20
135.6986373039016
 30
0.0
 11
127.4913183251809
 21
135.6986373039016
 31
0.0
  0
LINE
  5
8C9
330
1F
100
AcDbEntity
  8
0
 62
     7
100
AcDbLine
 10
83.04131832518081
 20
135.6986373039016
 30
0.0
 11
76.69131832518084
 21
135.6986373039016
 31
0.0
  0
LINE
  5
8CA
330
1F
100
AcDbEntity
  8
0
 62
     7
100
AcDbLine
 10
89.39131832518083
 20
135.6986373039016
 30
0.0
 11
83.04131832518081
 21
135.6986373039016
 31
0.0
  0
LINE
  5
8CB
330
1F
100
AcDbEntity
  8
0
 62
     7
100
AcDbLine
 10
44.94131832518087
 20
148.3986373039016
 30
0.0
 11
44.94131832518087
 21
154.7486373039017
 31
0.0
  0
LINE
  5
8CC
330
1F
100
AcDbEntity
  8
0
 62
     7
100
AcDbLine
 10
44.94131832518087
 20
154.7486373039017
 30
0.0
 11
44.94131832518087
 21
161.0986373039016
 31
0.0
  0
LINE
  5
8CD
330
1F
100
AcDbEntity
  8
0
 62
     7
100
AcDbLine
 10
44.94131832518087
 20
173.7986373039017
 30
0.0
 11
44.94131832518087
 21
180.1486373039016
 31
0.0
  0
LINE
  5
8CE
330
1F
100
AcDbEntity
  8
0
 62
     7
100
AcDbLine
 10
44.94131832518087
 20
180.1486373039016
 30
0.0
 11
44.94131832518087
 21
186.4986373039016
 31
0.0
  0
LINE
  5
8CF
330
1F
100
AcDbEntity
  8
0
 62
     7
100
AcDbLine
 10
127.4913183251809
 20
135.6986373039016
 30
0.0
 11
127.4913183251809
 21
140.4230373039016
 31
0.0
  0
LINE
  5
8D0
330
1F
100
AcDbEntity
  8
0
 62
     7
100
AcDbLine
 10
127.4913183251809
 20
140.4230373039016
 30
0.0
 11
121.1413183251808
 21
140.4230373039016
 31
0.0
  0
LINE
  5
8D1
330
1F
100
AcDbEntity
  8
0
 62
     7
100
AcDbLine
 10
89.39131832518083
 20
135.6986373039016
 30
0.0
 11
89.39131832518083
 21
140.4230373039016
 31
0.0
  0
LINE
  5
8D2
330
1F
100
AcDbEntity
  8
0
 62
     7
100
AcDbLine
 10
76.69131832518084
 20
135.6986373039016
 30
0.0
 11
76.69131832518084
 21
140.4230373039016
 31
0.0
  0
LINE
  5
8D3
330
1F
100
AcDbEntity
  8
0
 62
     7
100
AcDbLine
 10
76.69131832518084
 20
140.4230373039016
 30
0.0
 11
70.34131832518088
 21
140.4230373039016
 31
0.0
  0
LINE
  5
8D4
330
1F
100
AcDbEntity
  8
0
 62
     7
100
AcDbLine
 10
70.34131832518088
 20
140.4230373039016
 30
0.0
 11
63.99131832518086
 21
140.4230373039016
 31
0.0
  0
LINE
  5
8D5
330
1F
100
AcDbEntity
  8
0
 62
     7
100
AcDbLine
 10
49.66571832518085
 20
218.2486373039017
 30
0.0
 11
49.66571832518085
 21
224.5986373039017
 31
0.0
  0
LINE
  5
8D6
330
1F
100
AcDbEntity
  8
0
 62
     7
100
AcDbLine
 10
49.66571832518088
 20
186.4986373039016
 30
0.0
 11
49.66571832518085
 21
218.2486373039017
 31
0.0
  0
LINE
  5
8D7
330
1F
100
AcDbEntity
  8
0
 62
     7
100
AcDbLine
 10
49.66571832518088
 20
186.4986373039016
 30
0.0
 11
44.94131832518087
 21
186.4986373039016
 31
0.0
  0
LINE
  5
8D8
330
1F
100
AcDbEntity
  8
0
 62
     7
100
AcDbLine
 10
49.66571832518088
 20
167.4486373039016
 30
0.0
 11
49.66571832518088
 21
173.7986373039017
 31
0.0
  0
LINE
  5
8D9
330
1F
100
AcDbEntity
  8
0
 62
     7
100
AcDbLine
 10
49.66571832518088
 20
173.7986373039017
 30
0.0
 11
44.94131832518087
 21
173.7986373039017
 31
0.0
  0
LINE
  5
8DA
330
1F
100
AcDbEntity
  8
0
 62
     7
100
AcDbLine
 10
49.66571832518088
 20
161.0986373039016
 30
0.0
 11
49.66571832518088
 21
167.4486373039016
 31
0.0
  0
LINE
  5
8DB
330
1F
100
AcDbEntity
  8
0
 62
     7
100
AcDbLine
 10
49.66571832518088
 20
161.0986373039016
 30
0.0
 11
44.94131832518087
 21
161.0986373039016
 31
0.0
  0
LINE
  5
8DC
330
1F
100
AcDbEntity
  8
0
 62
     7
100
AcDbLine
 10
49.66571832518085
 20
142.0486373039016
 30
0.0
 11
49.66571832518085
 21
148.3986373039016
 31
0.0
  0
LINE
  5
8DD
330
1F
100
AcDbEntity
  8
0
 62
     7
100
AcDbLine
 10
49.66571832518085
 20
148.3986373039016
 30
0.0
 11
44.94131832518087
 21
148.3986373039016
 31
0.0
  0
LINE
  5
8DE
330
1F
100
AcDbEntity
  8
0
 62
     7
100
AcDbLine
 10
159.2413183251808
 20
135.6986373039016
 30
0.0
 11
159.2413183251808
 21
140.4230373039016
 31
0.0
  0
LINE
  5
8DF
330
1F
100
AcDbEntity
  8
0
 62
     7
100
AcDbLine
 10
165.5913183251809
 20
135.6986373039016
 30
0.0
 11
159.2413183251808
 21
135.6986373039016
 31
0.0
  0
LINE
  5
8E0
330
1F
100
AcDbEntity
  8
0
 62
     7
100
AcDbLine
 10
171.9413183251809
 20
135.6986373039016
 30
0.0
 11
165.5913183251809
 21
135.6986373039016
 31
0.0
  0
LINE
  5
8E1
330
1F
100
AcDbEntity
  8
0
 62
     7
100
AcDbLine
 10
152.8913183251809
 20
140.4230373039016
 30
0.0
 11
146.5413183251808
 21
140.4230373039016
 31
0.0
  0
LINE
  5
8E2
330
1F
100
AcDbEntity
  8
0
 62
     7
100
AcDbLine
 10
159.2413183251808
 20
140.4230373039016
 30
0.0
 11
152.8913183251809
 21
140.4230373039016
 31
0.0
  0
LINE
  5
8E3
330
1F
100
AcDbEntity
  8
0
 62
     7
100
AcDbLine
 10
146.5413183251808
 20
140.4230373039016
 30
0.0
 11
140.1913183251809
 21
140.4230373039016
 31
0.0
  0
LINE
  5
8E4
330
1F
100
AcDbEntity
  8
0
 62
     7
100
AcDbLine
 10
140.1913183251809
 20
135.6986373039016
 30
0.0
 11
140.1913183251809
 21
140.4230373039016
 31
0.0
  0
LINE
  5
8E5
330
1F
100
AcDbEntity
  8
0
 62
     7
100
AcDbLine
 10
49.66571832518085
 20
237.2986373039017
 30
0.0
 11
44.94131832518087
 21
237.2986373039017
 31
0.0
  0
LINE
  5
8E6
330
1F
100
AcDbEntity
  8
0
 62
     7
100
AcDbLine
 10
49.66571832518085
 20
237.2986373039017
 30
0.0
 11
49.66571832518085
 21
243.6486373039017
 31
0.0
  0
LINE
  5
8E7
330
1F
100
AcDbEntity
  8
0
 62
     7
100
AcDbLine
 10
49.66571832518085
 20
243.6486373039017
 30
0.0
 11
49.66571832518085
 21
249.9986373039017
 31
0.0
  0
LINE
  5
8E8
330
1F
100
AcDbEntity
  8
0
 62
     7
100
AcDbLine
 10
44.94131832518087
 20
230.9486373039016
 30
0.0
 11
44.94131832518087
 21
237.2986373039017
 31
0.0
  0
LINE
  5
8E9
330
1F
100
AcDbEntity
  8
0
 62
     7
100
AcDbLine
 10
44.94131832518087
 20
224.5986373039017
 30
0.0
 11
44.94131832518087
 21
230.9486373039016
 31
0.0
  0
LINE
  5
8EA
330
1F
100
AcDbEntity
  8
0
 62
     7
100
AcDbLine
 10
49.66571832518085
 20
224.5986373039017
 30
0.0
 11
44.94131832518087
 21
224.5986373039017
 31
0.0
  0
LINE
  5
8EC
330
1F
100
AcDbEntity
  8
0
 62
     7
100
AcDbLine
 10
95.7413183251808
 20
257.9742373039016
 30
0.0
 11
89.39131832518083
 21
257.9742373039016
 31
0.0
  0
LINE
  5
8ED
330
1F
100
AcDbEntity
  8
0
 62
     7
100
AcDbLine
 10
127.4913183251808
 20
257.9742373039016
 30
0.0
 11
127.4913183251808
 21
262.6986373039016
 31
0.0
  0
LINE
  5
8EE
330
1F
100
AcDbEntity
  8
0
 62
     7
100
AcDbLine
 10
133.8413183251808
 20
262.6986373039016
 30
0.0
 11
127.4913183251808
 21
262.6986373039016
 31
0.0
  0
LINE
  5
8EF
330
1F
100
AcDbEntity
  8
0
 62
     7
100
AcDbLine
 10
140.1913183251808
 20
262.6986373039016
 30
0.0
 11
133.8413183251808
 21
262.6986373039016
 31
0.0
  0
LINE
  5
8F0
330
1F
100
AcDbEntity
  8
0
 62
     7
100
AcDbLine
 10
140.1913183251808
 20
257.9742373039016
 30
0.0
 11
140.1913183251808
 21
262.6986373039016
 31
0.0
  0
LINE
  5
8F1
330
1F
100
AcDbEntity
  8
0
 62
     7
100
AcDbLine
 10
167.2169183251808
 20
224.5986373039017
 30
0.0
 11
167.2169183251808
 21
230.9486373039016
 31
0.0
  0
LINE
  5
8F2
330
1F
100
AcDbEntity
  8
0
 62
     7
100
AcDbLine
 10
167.2169183251808
 20
230.9486373039016
 30
0.0
 11
167.2169183251808
 21
237.2986373039017
 31
0.0
  0
LINE
  5
8F3
330
1F
100
AcDbEntity
  8
0
 62
     7
100
AcDbLine
 10
171.9413183251807
 20
243.6486373039016
 30
0.0
 11
171.9413183251807
 21
249.9986373039017
 31
0.0
  0
LINE
  5
8F4
330
1F
100
AcDbEntity
  8
0
 62
     7
100
AcDbLine
 10
171.9413183251807
 20
237.2986373039016
 30
0.0
 11
171.9413183251807
 21
243.6486373039016
 31
0.0
  0
LINE
  5
8F5
330
1F
100
AcDbEntity
  8
0
 62
     7
100
AcDbLine
 10
171.9413183251807
 20
237.2986373039016
 30
0.0
 11
167.2169183251808
 21
237.2986373039017
 31
0.0
  0
LINE
  5
8F6
330
1F
100
AcDbEntity
  8
0
 62
     7
100
AcDbLine
 10
167.2169183251808
 20
249.9986373039017
 30
0.0
 11
171.9413183251807
 21
249.9986373039017
 31
0.0
  0
LINE
  5
8FA
330
1F
100
AcDbEntity
  8
0
 62
     7
100
AcDbLine
 10
130.8127074798817
 20
113.1337039321947
 30
0.0
 11
137.1627074798817
 21
113.1337039321947
 31
0.0
  0
LINE
  5
8FB
330
1F
100
AcDbEntity
  8
0
 62
     7
100
AcDbLine
 10
124.4627074798817
 20
113.1337039321947
 30
0.0
 11
130.8127074798817
 21
113.1337039321947
 31
0.0
  0
LINE
  5
8FC
330
1F
100
AcDbEntity
  8
0
 62
     7
100
AcDbLine
 10
124.4627074798817
 20
113.1337039321947
 30
0.0
 11
124.4627074798817
 21
117.8581039321947
 31
0.0
  0
LINE
  5
8FD
330
1F
100
AcDbEntity
  8
0
 62
     7
100
AcDbLine
 10
137.1627074798817
 20
113.1337039321947
 30
0.0
 11
137.1627074798817
 21
117.8581039321947
 31
0.0
  0
LINE
  5
8FE
330
1F
100
AcDbEntity
  8
0
 62
     7
100
AcDbLine
 10
124.4627074798817
 20
117.8581039321947
 30
0.0
 11
86.36270747988169
 21
117.8581039321947
 31
0.0
  0
LINE
  5
8FF
330
1F
100
AcDbEntity
  8
0
 62
     7
100
AcDbLine
 10
164.1883074798817
 20
22.60810393219462
 30
0.0
 11
168.9127074798817
 21
22.60810393219462
 31
0.0
  0
LINE
  5
900
330
1F
100
AcDbEntity
  8
0
 62
     7
100
AcDbLine
 10
164.1883074798817
 20
22.60810393219462
 30
0.0
 11
164.1883074798817
 21
28.95810393219465
 31
0.0
  0
LINE
  5
901
330
1F
100
AcDbEntity
  8
0
 62
     7
100
AcDbLine
 10
164.1883074798817
 20
28.95810393219465
 30
0.0
 11
164.1883074798817
 21
35.30810393219465
 31
0.0
  0
LINE
  5
902
330
1F
100
AcDbEntity
  8
0
 62
     7
100
AcDbLine
 10
164.1883074798817
 20
35.30810393219465
 30
0.0
 11
168.9127074798817
 21
35.30810393219465
 31
0.0
  0
LINE
  5
903
330
1F
100
AcDbEntity
  8
0
 62
     7
100
AcDbLine
 10
124.4627074798817
 20
-4.417496067805306
 30
0.0
 11
130.8127074798817
 21
-4.417496067805306
 31
0.0
  0
LINE
  5
904
330
1F
100
AcDbEntity
  8
0
 62
     7
100
AcDbLine
 10
130.8127074798817
 20
-4.417496067805306
 30
0.0
 11
137.1627074798817
 21
-4.417496067805306
 31
0.0
  0
LINE
  5
905
330
1F
100
AcDbEntity
  8
0
 62
     7
100
AcDbLine
 10
137.1627074798817
 20
-9.141896067805305
 30
0.0
 11
137.1627074798817
 21
-4.417496067805306
 31
0.0
  0
LINE
  5
906
330
1F
100
AcDbEntity
  8
0
 62
     7
100
AcDbLine
 10
124.4627074798817
 20
-4.417496067805306
 30
0.0
 11
124.4627074798817
 21
-9.141896067805305
 31
0.0
  0
LINE
  5
907
330
1F
100
AcDbEntity
  8
0
 62
     7
100
AcDbLine
 10
41.91270747988167
 20
22.60810393219462
 30
0.0
 11
46.63710747988166
 21
22.60810393219462
 31
0.0
  0
LINE
  5
908
330
1F
100
AcDbEntity
  8
0
 62
     7
100
AcDbLine
 10
46.63710747988166
 20
22.60810393219462
 30
0.0
 11
46.63710747988166
 21
28.95810393219465
 31
0.0
  0
LINE
  5
909
330
1F
100
AcDbEntity
  8
0
 62
     7
100
AcDbLine
 10
46.63710747988166
 20
28.95810393219465
 30
0.0
 11
46.63710747988166
 21
35.30810393219465
 31
0.0
  0
LINE
  5
90A
330
1F
100
AcDbEntity
  8
0
 62
     7
100
AcDbLine
 10
41.91270747988167
 20
35.30810393219465
 30
0.0
 11
46.63710747988166
 21
35.30810393219465
 31
0.0
  0
LINE
  5
90B
330
1F
100
AcDbEntity
  8
0
 62
     7
100
AcDbLine
 10
168.9127074798817
 20
35.30810393219465
 30
0.0
 11
168.9127074798817
 21
73.40810393219468
 31
0.0
  0
LINE
  5
90C
330
1F
100
AcDbEntity
  8
0
 62
     7
100
AcDbLine
 10
124.4627074798817
 20
-9.141896067805305
 30
0.0
 11
86.36270747988166
 21
-9.141896067805305
 31
0.0
  0
LINE
  5
90D
330
1F
100
AcDbEntity
  8
0
 62
     7
100
AcDbLine
 10
41.91270747988167
 20
35.30810393219465
 30
0.0
 11
41.91270747988168
 21
73.40810393219468
 31
0.0
  0
LINE
  5
AF3
330
1F
100
AcDbEntity
  8
0
 62
     7
100
AcDbLine
 10
121.1413183251808
 20
257.9742373039016
 30
0.0
 11
127.4913183251808
 21
257.9742373039016
 31
0.0
  0
CIRCLE
  5
DF2
330
1F
100
AcDbEntity
  8
0
100
AcDbCircle
 10
108.4413183251808
 20
218.7791836038252
 30
0.0
 40
25.908
  0
LINE
  5
DFD
330
1F
100
AcDbEntity
  8
0
100
AcDbLine
 10
121.1413183251808
 20
257.9742373039016
 30
0.0
 11
95.7413183251808
 21
257.9742373039016
 31
0.0
  0
LINE
  5
DFE
330
1F
100
AcDbEntity
  8
0
100
AcDbLine
 10
121.1413183251808
 20
140.4230373039016
 30
0.0
 11
95.74131832518083
 21
140.4230373039016
 31
0.0
  0
LINE
  5
E02
330
1F
100
AcDbEntity
  8
0
 62
     7
100
AcDbLine
 10
225.3424921009937
 20
140.4230373039016
 30
0.0
 11
218.9924921009937
 21
140.4230373039016
 31
0.0
  0
LINE
  5
E03
330
1F
100
AcDbEntity
  8
0
 62
     7
100
AcDbLine
 10
187.2424921009937
 20
135.6986373039016
 30
0.0
 11
187.2424921009937
 21
140.4230373039016
 31
0.0
  0
LINE
  5
E04
330
1F
100
AcDbEntity
  8
0
 62
     7
100
AcDbLine
 10
193.5924921009937
 20
140.4230373039016
 30
0.0
 11
187.2424921009937
 21
140.4230373039016
 31
0.0
  0
LINE
  5
E05
330
1F
100
AcDbEntity
  8
0
 62
     7
100
AcDbLine
 10
288.8424921009936
 20
257.9742373039016
 30
0.0
 11
288.8424921009936
 21
262.6986373039016
 31
0.0
  0
LINE
  5
E06
330
1F
100
AcDbEntity
  8
0
 62
     7
100
AcDbLine
 10
296.8180921009937
 20
256.3486373039016
 30
0.0
 11
296.8180921009937
 21
262.6986373039016
 31
0.0
  0
LINE
  5
E07
330
1F
100
AcDbEntity
  8
0
 62
     7
100
AcDbLine
 10
179.2668921009937
 20
135.6986373039016
 30
0.0
 11
179.2668921009937
 21
142.0486373039016
 31
0.0
  0
LINE
  5
E08
330
1F
100
AcDbEntity
  8
0
 62
     7
100
AcDbLine
 10
187.2424921009937
 20
135.6986373039016
 30
0.0
 11
179.2668921009937
 21
135.6986373039016
 31
0.0
  0
LINE
  5
E09
330
1F
100
AcDbEntity
  8
0
 62
     7
100
AcDbLine
 10
282.4924921009937
 20
257.9742373039016
 30
0.0
 11
288.8424921009936
 21
257.9742373039016
 31
0.0
  0
LINE
  5
E0A
330
1F
100
AcDbEntity
  8
0
 62
     7
100
AcDbLine
 10
187.2424921009937
 20
262.6986373039016
 30
0.0
 11
180.8924921009937
 21
262.6986373039016
 31
0.0
  0
LINE
  5
E0B
330
1F
100
AcDbEntity
  8
0
 62
     7
100
AcDbLine
 10
174.5424921009937
 20
249.9986373039017
 30
0.0
 11
179.2668921009937
 21
249.9986373039017
 31
0.0
  0
LINE
  5
E0C
330
1F
100
AcDbEntity
  8
0
 62
     7
100
AcDbLine
 10
174.5424921009937
 20
249.9986373039017
 30
0.0
 11
174.5424921009937
 21
256.3486373039016
 31
0.0
  0
LINE
  5
E0D
330
1F
100
AcDbEntity
  8
0
 62
     7
100
AcDbLine
 10
174.5424921009937
 20
256.3486373039016
 30
0.0
 11
174.5424921009937
 21
262.6986373039016
 31
0.0
  0
LINE
  5
E0E
330
1F
100
AcDbEntity
  8
0
 62
     7
100
AcDbLine
 10
180.8924921009937
 20
262.6986373039016
 30
0.0
 11
174.5424921009937
 21
262.6986373039016
 31
0.0
  0
LINE
  5
E0F
330
1F
100
AcDbEntity
  8
0
 62
     7
100
AcDbLine
 10
187.2424921009937
 20
257.9742373039016
 30
0.0
 11
187.2424921009937
 21
262.6986373039016
 31
0.0
  0
LINE
  5
E10
330
1F
100
AcDbEntity
  8
0
 62
     7
100
AcDbLine
 10
296.8180921009937
 20
249.9986373039017
 30
0.0
 11
296.8180921009937
 21
256.3486373039016
 31
0.0
  0
LINE
  5
E11
330
1F
100
AcDbEntity
  8
0
 62
     7
100
AcDbLine
 10
296.8180921009937
 20
262.6986373039016
 30
0.0
 11
288.8424921009936
 21
262.6986373039016
 31
0.0
  0
LINE
  5
E12
330
1F
100
AcDbEntity
  8
0
 62
     7
100
AcDbLine
 10
282.4924921009937
 20
257.9742373039016
 30
0.0
 11
269.7924921009936
 21
257.9742373039016
 31
0.0
  0
LINE
  5
E13
330
1F
100
AcDbEntity
  8
0
 62
     7
100
AcDbLine
 10
218.9924921009937
 20
257.9742373039016
 30
0.0
 11
218.9924921009937
 21
262.6986373039016
 31
0.0
  0
LINE
  5
E14
330
1F
100
AcDbEntity
  8
0
 62
     7
100
AcDbLine
 10
218.9924921009937
 20
262.6986373039016
 30
0.0
 11
212.6424921009937
 21
262.6986373039016
 31
0.0
  0
LINE
  5
E15
330
1F
100
AcDbEntity
  8
0
 62
     7
100
AcDbLine
 10
212.6424921009937
 20
262.6986373039016
 30
0.0
 11
206.2924921009937
 21
262.6986373039016
 31
0.0
  0
LINE
  5
E16
330
1F
100
AcDbEntity
  8
0
 62
     7
100
AcDbLine
 10
206.2924921009937
 20
257.9742373039016
 30
0.0
 11
206.2924921009937
 21
262.6986373039016
 31
0.0
  0
LINE
  5
E17
330
1F
100
AcDbEntity
  8
0
 62
     7
100
AcDbLine
 10
206.2924921009937
 20
257.9742373039016
 30
0.0
 11
193.5924921009937
 21
257.9742373039016
 31
0.0
  0
LINE
  5
E18
330
1F
100
AcDbEntity
  8
0
 62
     7
100
AcDbLine
 10
193.5924921009937
 20
257.9742373039016
 30
0.0
 11
187.2424921009937
 21
257.9742373039016
 31
0.0
  0
LINE
  5
E19
330
1F
100
AcDbEntity
  8
0
 62
     7
100
AcDbLine
 10
296.8180921009937
 20
148.3986373039016
 30
0.0
 11
296.8180921009937
 21
154.7486373039016
 31
0.0
  0
LINE
  5
E1A
330
1F
100
AcDbEntity
  8
0
 62
     7
100
AcDbLine
 10
296.8180921009937
 20
154.7486373039016
 30
0.0
 11
296.8180921009937
 21
161.0986373039016
 31
0.0
  0
LINE
  5
E1B
330
1F
100
AcDbEntity
  8
0
 62
     7
100
AcDbLine
 10
296.8180921009937
 20
173.7986373039017
 30
0.0
 11
296.8180921009937
 21
180.1486373039016
 31
0.0
  0
LINE
  5
E1C
330
1F
100
AcDbEntity
  8
0
 62
     7
100
AcDbLine
 10
296.8180921009937
 20
180.1486373039016
 30
0.0
 11
296.8180921009937
 21
186.4986373039016
 31
0.0
  0
LINE
  5
E1D
330
1F
100
AcDbEntity
  8
0
 62
     7
100
AcDbLine
 10
301.5424921009937
 20
135.6986373039016
 30
0.0
 11
301.5424921009937
 21
142.0486373039016
 31
0.0
  0
LINE
  5
E1E
330
1F
100
AcDbEntity
  8
0
 62
     7
100
AcDbLine
 10
301.5424921009937
 20
148.3986373039016
 30
0.0
 11
296.8180921009937
 21
148.3986373039016
 31
0.0
  0
LINE
  5
E1F
330
1F
100
AcDbEntity
  8
0
 62
     7
100
AcDbLine
 10
301.5424921009937
 20
142.0486373039016
 30
0.0
 11
301.5424921009937
 21
148.3986373039016
 31
0.0
  0
LINE
  5
E20
330
1F
100
AcDbEntity
  8
0
 62
     7
100
AcDbLine
 10
301.5424921009937
 20
161.0986373039016
 30
0.0
 11
296.8180921009937
 21
161.0986373039016
 31
0.0
  0
LINE
  5
E21
330
1F
100
AcDbEntity
  8
0
 62
     7
100
AcDbLine
 10
301.5424921009937
 20
161.0986373039016
 30
0.0
 11
301.5424921009937
 21
167.4486373039016
 31
0.0
  0
LINE
  5
E22
330
1F
100
AcDbEntity
  8
0
 62
     7
100
AcDbLine
 10
301.5424921009937
 20
173.7986373039017
 30
0.0
 11
296.8180921009937
 21
173.7986373039017
 31
0.0
  0
LINE
  5
E23
330
1F
100
AcDbEntity
  8
0
 62
     7
100
AcDbLine
 10
301.5424921009937
 20
167.4486373039016
 30
0.0
 11
301.5424921009937
 21
173.7986373039017
 31
0.0
  0
LINE
  5
E24
330
1F
100
AcDbEntity
  8
0
 62
     7
100
AcDbLine
 10
301.5424921009937
 20
186.4986373039016
 30
0.0
 11
296.8180921009937
 21
186.4986373039016
 31
0.0
  0
LINE
  5
E25
330
1F
100
AcDbEntity
  8
0
 62
     7
100
AcDbLine
 10
301.5424921009937
 20
186.4986373039016
 30
0.0
 11
301.5424921009937
 21
218.2486373039017
 31
0.0
  0
LINE
  5
E26
330
1F
100
AcDbEntity
  8
0
 62
     7
100
AcDbLine
 10
301.5424921009937
 20
224.5986373039016
 30
0.0
 11
296.8180921009937
 21
224.5986373039016
 31
0.0
  0
LINE
  5
E27
330
1F
100
AcDbEntity
  8
0
 62
     7
100
AcDbLine
 10
301.5424921009937
 20
218.2486373039017
 30
0.0
 11
301.5424921009937
 21
224.5986373039016
 31
0.0
  0
LINE
  5
E28
330
1F
100
AcDbEntity
  8
0
 62
     7
100
AcDbLine
 10
269.7924921009937
 20
135.6986373039016
 30
0.0
 11
263.4424921009937
 21
135.6986373039016
 31
0.0
  0
LINE
  5
E29
330
1F
100
AcDbEntity
  8
0
 62
     7
100
AcDbLine
 10
263.4424921009937
 20
135.6986373039016
 30
0.0
 11
257.0924921009937
 21
135.6986373039016
 31
0.0
  0
LINE
  5
E2A
330
1F
100
AcDbEntity
  8
0
 62
     7
100
AcDbLine
 10
212.6424921009937
 20
135.6986373039016
 30
0.0
 11
206.2924921009937
 21
135.6986373039016
 31
0.0
  0
LINE
  5
E2B
330
1F
100
AcDbEntity
  8
0
 62
     7
100
AcDbLine
 10
218.9924921009937
 20
135.6986373039016
 30
0.0
 11
212.6424921009937
 21
135.6986373039016
 31
0.0
  0
LINE
  5
E2C
330
1F
100
AcDbEntity
  8
0
 62
     7
100
AcDbLine
 10
174.5424921009937
 20
148.3986373039016
 30
0.0
 11
174.5424921009937
 21
154.7486373039017
 31
0.0
  0
LINE
  5
E2D
330
1F
100
AcDbEntity
  8
0
 62
     7
100
AcDbLine
 10
174.5424921009937
 20
154.7486373039017
 30
0.0
 11
174.5424921009937
 21
161.0986373039016
 31
0.0
  0
LINE
  5
E2E
330
1F
100
AcDbEntity
  8
0
 62
     7
100
AcDbLine
 10
174.5424921009937
 20
173.7986373039017
 30
0.0
 11
174.5424921009937
 21
180.1486373039016
 31
0.0
  0
LINE
  5
E2F
330
1F
100
AcDbEntity
  8
0
 62
     7
100
AcDbLine
 10
174.5424921009937
 20
180.1486373039016
 30
0.0
 11
174.5424921009937
 21
186.4986373039016
 31
0.0
  0
LINE
  5
E30
330
1F
100
AcDbEntity
  8
0
 62
     7
100
AcDbLine
 10
257.0924921009937
 20
135.6986373039016
 30
0.0
 11
257.0924921009937
 21
140.4230373039016
 31
0.0
  0
LINE
  5
E31
330
1F
100
AcDbEntity
  8
0
 62
     7
100
AcDbLine
 10
257.0924921009937
 20
140.4230373039016
 30
0.0
 11
250.7424921009937
 21
140.4230373039016
 31
0.0
  0
LINE
  5
E32
330
1F
100
AcDbEntity
  8
0
 62
     7
100
AcDbLine
 10
218.9924921009937
 20
135.6986373039016
 30
0.0
 11
218.9924921009937
 21
140.4230373039016
 31
0.0
  0
LINE
  5
E33
330
1F
100
AcDbEntity
  8
0
 62
     7
100
AcDbLine
 10
206.2924921009937
 20
135.6986373039016
 30
0.0
 11
206.2924921009937
 21
140.4230373039016
 31
0.0
  0
LINE
  5
E34
330
1F
100
AcDbEntity
  8
0
 62
     7
100
AcDbLine
 10
206.2924921009937
 20
140.4230373039016
 30
0.0
 11
199.9424921009937
 21
140.4230373039016
 31
0.0
  0
LINE
  5
E35
330
1F
100
AcDbEntity
  8
0
 62
     7
100
AcDbLine
 10
199.9424921009937
 20
140.4230373039016
 30
0.0
 11
193.5924921009937
 21
140.4230373039016
 31
0.0
  0
LINE
  5
E36
330
1F
100
AcDbEntity
  8
0
 62
     7
100
AcDbLine
 10
179.2668921009937
 20
218.2486373039017
 30
0.0
 11
179.2668921009937
 21
224.5986373039017
 31
0.0
  0
LINE
  5
E37
330
1F
100
AcDbEntity
  8
0
 62
     7
100
AcDbLine
 10
179.2668921009937
 20
186.4986373039016
 30
0.0
 11
179.2668921009937
 21
218.2486373039017
 31
0.0
  0
LINE
  5
E38
330
1F
100
AcDbEntity
  8
0
 62
     7
100
AcDbLine
 10
179.2668921009937
 20
186.4986373039016
 30
0.0
 11
174.5424921009937
 21
186.4986373039016
 31
0.0
  0
LINE
  5
E39
330
1F
100
AcDbEntity
  8
0
 62
     7
100
AcDbLine
 10
179.2668921009937
 20
167.4486373039016
 30
0.0
 11
179.2668921009937
 21
173.7986373039017
 31
0.0
  0
LINE
  5
E3A
330
1F
100
AcDbEntity
  8
0
 62
     7
100
AcDbLine
 10
179.2668921009937
 20
173.7986373039017
 30
0.0
 11
174.5424921009937
 21
173.7986373039017
 31
0.0
  0
LINE
  5
E3B
330
1F
100
AcDbEntity
  8
0
 62
     7
100
AcDbLine
 10
179.2668921009937
 20
161.0986373039016
 30
0.0
 11
179.2668921009937
 21
167.4486373039016
 31
0.0
  0
LINE
  5
E3C
330
1F
100
AcDbEntity
  8
0
 62
     7
100
AcDbLine
 10
179.2668921009937
 20
161.0986373039016
 30
0.0
 11
174.5424921009937
 21
161.0986373039016
 31
0.0
  0
LINE
  5
E3D
330
1F
100
AcDbEntity
  8
0
 62
     7
100
AcDbLine
 10
179.2668921009937
 20
142.0486373039016
 30
0.0
 11
179.2668921009937
 21
148.3986373039016
 31
0.0
  0
LINE
  5
E3E
330
1F
100
AcDbEntity
  8
0
 62
     7
100
AcDbLine
 10
179.2668921009937
 20
148.3986373039016
 30
0.0
 11
174.5424921009937
 21
148.3986373039016
 31
0.0
  0
LINE
  5
E3F
330
1F
100
AcDbEntity
  8
0
 62
     7
100
AcDbLine
 10
288.8424921009937
 20
135.6986373039016
 30
0.0
 11
288.8424921009937
 21
140.4230373039016
 31
0.0
  0
LINE
  5
E40
330
1F
100
AcDbEntity
  8
0
 62
     7
100
AcDbLine
 10
295.1924921009937
 20
135.6986373039016
 30
0.0
 11
288.8424921009937
 21
135.6986373039016
 31
0.0
  0
LINE
  5
E41
330
1F
100
AcDbEntity
  8
0
 62
     7
100
AcDbLine
 10
301.5424921009937
 20
135.6986373039016
 30
0.0
 11
295.1924921009937
 21
135.6986373039016
 31
0.0
  0
LINE
  5
E42
330
1F
100
AcDbEntity
  8
0
 62
     7
100
AcDbLine
 10
282.4924921009938
 20
140.4230373039016
 30
0.0
 11
276.1424921009937
 21
140.4230373039016
 31
0.0
  0
LINE
  5
E43
330
1F
100
AcDbEntity
  8
0
 62
     7
100
AcDbLine
 10
288.8424921009937
 20
140.4230373039016
 30
0.0
 11
282.4924921009938
 21
140.4230373039016
 31
0.0
  0
LINE
  5
E44
330
1F
100
AcDbEntity
  8
0
 62
     7
100
AcDbLine
 10
276.1424921009937
 20
140.4230373039016
 30
0.0
 11
269.7924921009937
 21
140.4230373039016
 31
0.0
  0
LINE
  5
E45
330
1F
100
AcDbEntity
  8
0
 62
     7
100
AcDbLine
 10
269.7924921009937
 20
135.6986373039016
 30
0.0
 11
269.7924921009937
 21
140.4230373039016
 31
0.0
  0
LINE
  5
E46
330
1F
100
AcDbEntity
  8
0
 62
     7
100
AcDbLine
 10
179.2668921009937
 20
237.2986373039017
 30
0.0
 11
174.5424921009937
 21
237.2986373039017
 31
0.0
  0
LINE
  5
E47
330
1F
100
AcDbEntity
  8
0
 62
     7
100
AcDbLine
 10
179.2668921009937
 20
237.2986373039017
 30
0.0
 11
179.2668921009937
 21
243.6486373039017
 31
0.0
  0
LINE
  5
E48
330
1F
100
AcDbEntity
  8
0
 62
     7
100
AcDbLine
 10
179.2668921009937
 20
243.6486373039017
 30
0.0
 11
179.2668921009937
 21
249.9986373039017
 31
0.0
  0
LINE
  5
E49
330
1F
100
AcDbEntity
  8
0
 62
     7
100
AcDbLine
 10
174.5424921009937
 20
230.9486373039016
 30
0.0
 11
174.5424921009937
 21
237.2986373039017
 31
0.0
  0
LINE
  5
E4A
330
1F
100
AcDbEntity
  8
0
 62
     7
100
AcDbLine
 10
174.5424921009937
 20
224.5986373039017
 30
0.0
 11
174.5424921009937
 21
230.9486373039016
 31
0.0
  0
LINE
  5
E4B
330
1F
100
AcDbEntity
  8
0
 62
     7
100
AcDbLine
 10
179.2668921009937
 20
224.5986373039017
 30
0.0
 11
174.5424921009937
 21
224.5986373039017
 31
0.0
  0
LINE
  5
E4C
330
1F
100
AcDbEntity
  8
0
 62
     7
100
AcDbLine
 10
225.3424921009937
 20
257.9742373039016
 30
0.0
 11
218.9924921009937
 21
257.9742373039016
 31
0.0
  0
LINE
  5
E4D
330
1F
100
AcDbEntity
  8
0
 62
     7
100
AcDbLine
 10
257.0924921009937
 20
257.9742373039016
 30
0.0
 11
257.0924921009937
 21
262.6986373039016
 31
0.0
  0
LINE
  5
E4E
330
1F
100
AcDbEntity
  8
0
 62
     7
100
AcDbLine
 10
263.4424921009937
 20
262.6986373039016
 30
0.0
 11
257.0924921009937
 21
262.6986373039016
 31
0.0
  0
LINE
  5
E4F
330
1F
100
AcDbEntity
  8
0
 62
     7
100
AcDbLine
 10
269.7924921009937
 20
262.6986373039016
 30
0.0
 11
263.4424921009937
 21
262.6986373039016
 31
0.0
  0
LINE
  5
E50
330
1F
100
AcDbEntity
  8
0
 62
     7
100
AcDbLine
 10
269.7924921009937
 20
257.9742373039016
 30
0.0
 11
269.7924921009937
 21
262.6986373039016
 31
0.0
  0
LINE
  5
E51
330
1F
100
AcDbEntity
  8
0
 62
     7
100
AcDbLine
 10
296.8180921009937
 20
224.5986373039017
 30
0.0
 11
296.8180921009937
 21
230.9486373039016
 31
0.0
  0
LINE
  5
E52
330
1F
100
AcDbEntity
  8
0
 62
     7
100
AcDbLine
 10
296.8180921009937
 20
230.9486373039016
 30
0.0
 11
296.8180921009937
 21
237.2986373039017
 31
0.0
  0
LINE
  5
E53
330
1F
100
AcDbEntity
  8
0
 62
     7
100
AcDbLine
 10
301.5424921009936
 20
243.6486373039016
 30
0.0
 11
301.5424921009936
 21
249.9986373039017
 31
0.0
  0
LINE
  5
E54
330
1F
100
AcDbEntity
  8
0
 62
     7
100
AcDbLine
 10
301.5424921009936
 20
237.2986373039016
 30
0.0
 11
301.5424921009936
 21
243.6486373039016
 31
0.0
  0
LINE
  5
E55
330
1F
100
AcDbEntity
  8
0
 62
     7
100
AcDbLine
 10
301.5424921009936
 20
237.2986373039016
 30
0.0
 11
296.8180921009937
 21
237.2986373039017
 31
0.0
  0
LINE
  5
E56
330
1F
100
AcDbEntity
  8
0
 62
     7
100
AcDbLine
 10
296.8180921009937
 20
249.9986373039017
 30
0.0
 11
301.5424921009936
 21
249.9986373039017
 31
0.0
  0
LINE
  5
E57
330
1F
100
AcDbEntity
  8
0
 62
     7
100
AcDbLine
 10
250.7424921009937
 20
257.9742373039016
 30
0.0
 11
257.0924921009937
 21
257.9742373039016
 31
0.0
  0
LINE
  5
E58
330
1F
100
AcDbEntity
  8
0
100
AcDbLine
 10
250.7424921009937
 20
257.9742373039016
 30
0.0
 11
225.3424921009937
 21
257.9742373039016
 31
0.0
  0
LINE
  5
E59
330
1F
100
AcDbEntity
  8
0
100
AcDbLine
 10
250.7424921009937
 20
140.4230373039016
 30
0.0
 11
225.3424921009937
 21
140.4230373039016
 31
0.0
  0
LINE
  5
E5A
330
1F
100
AcDbEntity
  8
0
 62
     7
100
AcDbLine
 10
356.0281945276502
 20
140.4230373039016
 30
0.0
 11
349.6781945276501
 21
140.4230373039016
 31
0.0
  0
LINE
  5
E5B
330
1F
100
AcDbEntity
  8
0
 62
     7
100
AcDbLine
 10
317.9281945276502
 20
135.6986373039016
 30
0.0
 11
317.9281945276502
 21
140.4230373039016
 31
0.0
  0
LINE
  5
E5C
330
1F
100
AcDbEntity
  8
0
 62
     7
100
AcDbLine
 10
324.2781945276502
 20
140.4230373039016
 30
0.0
 11
317.9281945276502
 21
140.4230373039016
 31
0.0
  0
LINE
  5
E5D
330
1F
100
AcDbEntity
  8
0
 62
     7
100
AcDbLine
 10
419.5281945276501
 20
257.9742373039016
 30
0.0
 11
419.5281945276501
 21
262.6986373039016
 31
0.0
  0
LINE
  5
E5E
330
1F
100
AcDbEntity
  8
0
 62
     7
100
AcDbLine
 10
427.5037945276501
 20
256.3486373039016
 30
0.0
 11
427.5037945276501
 21
262.6986373039016
 31
0.0
  0
LINE
  5
E5F
330
1F
100
AcDbEntity
  8
0
 62
     7
100
AcDbLine
 10
309.9525945276501
 20
135.6986373039016
 30
0.0
 11
309.9525945276501
 21
142.0486373039016
 31
0.0
  0
LINE
  5
E60
330
1F
100
AcDbEntity
  8
0
 62
     7
100
AcDbLine
 10
317.9281945276502
 20
135.6986373039016
 30
0.0
 11
309.9525945276501
 21
135.6986373039016
 31
0.0
  0
LINE
  5
E61
330
1F
100
AcDbEntity
  8
0
 62
     7
100
AcDbLine
 10
413.1781945276501
 20
257.9742373039016
 30
0.0
 11
419.5281945276501
 21
257.9742373039016
 31
0.0
  0
LINE
  5
E62
330
1F
100
AcDbEntity
  8
0
 62
     7
100
AcDbLine
 10
317.9281945276502
 20
262.6986373039016
 30
0.0
 11
311.5781945276502
 21
262.6986373039016
 31
0.0
  0
LINE
  5
E63
330
1F
100
AcDbEntity
  8
0
 62
     7
100
AcDbLine
 10
305.2281945276502
 20
249.9986373039017
 30
0.0
 11
309.9525945276501
 21
249.9986373039017
 31
0.0
  0
LINE
  5
E64
330
1F
100
AcDbEntity
  8
0
 62
     7
100
AcDbLine
 10
305.2281945276502
 20
249.9986373039017
 30
0.0
 11
305.2281945276502
 21
256.3486373039016
 31
0.0
  0
LINE
  5
E65
330
1F
100
AcDbEntity
  8
0
 62
     7
100
AcDbLine
 10
305.2281945276502
 20
256.3486373039016
 30
0.0
 11
305.2281945276502
 21
262.6986373039016
 31
0.0
  0
LINE
  5
E66
330
1F
100
AcDbEntity
  8
0
 62
     7
100
AcDbLine
 10
311.5781945276502
 20
262.6986373039016
 30
0.0
 11
305.2281945276502
 21
262.6986373039016
 31
0.0
  0
LINE
  5
E67
330
1F
100
AcDbEntity
  8
0
 62
     7
100
AcDbLine
 10
317.9281945276501
 20
257.9742373039016
 30
0.0
 11
317.9281945276502
 21
262.6986373039016
 31
0.0
  0
LINE
  5
E68
330
1F
100
AcDbEntity
  8
0
 62
     7
100
AcDbLine
 10
427.5037945276501
 20
249.9986373039017
 30
0.0
 11
427.5037945276501
 21
256.3486373039016
 31
0.0
  0
LINE
  5
E69
330
1F
100
AcDbEntity
  8
0
 62
     7
100
AcDbLine
 10
427.5037945276501
 20
262.6986373039016
 30
0.0
 11
419.5281945276501
 21
262.6986373039016
 31
0.0
  0
LINE
  5
E6A
330
1F
100
AcDbEntity
  8
0
 62
     7
100
AcDbLine
 10
413.1781945276501
 20
257.9742373039016
 30
0.0
 11
400.4781945276501
 21
257.9742373039016
 31
0.0
  0
LINE
  5
E6B
330
1F
100
AcDbEntity
  8
0
 62
     7
100
AcDbLine
 10
349.6781945276501
 20
257.9742373039016
 30
0.0
 11
349.6781945276501
 21
262.6986373039016
 31
0.0
  0
LINE
  5
E6C
330
1F
100
AcDbEntity
  8
0
 62
     7
100
AcDbLine
 10
349.6781945276501
 20
262.6986373039016
 30
0.0
 11
343.3281945276501
 21
262.6986373039016
 31
0.0
  0
LINE
  5
E6D
330
1F
100
AcDbEntity
  8
0
 62
     7
100
AcDbLine
 10
343.3281945276501
 20
262.6986373039016
 30
0.0
 11
336.9781945276502
 21
262.6986373039016
 31
0.0
  0
LINE
  5
E6E
330
1F
100
AcDbEntity
  8
0
 62
     7
100
AcDbLine
 10
336.9781945276502
 20
257.9742373039016
 30
0.0
 11
336.9781945276502
 21
262.6986373039016
 31
0.0
  0
LINE
  5
E6F
330
1F
100
AcDbEntity
  8
0
 62
     7
100
AcDbLine
 10
336.9781945276502
 20
257.9742373039016
 30
0.0
 11
324.2781945276502
 21
257.9742373039016
 31
0.0
  0
LINE
  5
E70
330
1F
100
AcDbEntity
  8
0
 62
     7
100
AcDbLine
 10
324.2781945276502
 20
257.9742373039016
 30
0.0
 11
317.9281945276501
 21
257.9742373039016
 31
0.0
  0
LINE
  5
E71
330
1F
100
AcDbEntity
  8
0
 62
     7
100
AcDbLine
 10
427.5037945276502
 20
148.3986373039016
 30
0.0
 11
427.5037945276502
 21
154.7486373039016
 31
0.0
  0
LINE
  5
E72
330
1F
100
AcDbEntity
  8
0
 62
     7
100
AcDbLine
 10
427.5037945276502
 20
154.7486373039016
 30
0.0
 11
427.5037945276502
 21
161.0986373039016
 31
0.0
  0
LINE
  5
E73
330
1F
100
AcDbEntity
  8
0
 62
     7
100
AcDbLine
 10
427.5037945276502
 20
173.7986373039017
 30
0.0
 11
427.5037945276502
 21
180.1486373039016
 31
0.0
  0
LINE
  5
E74
330
1F
100
AcDbEntity
  8
0
 62
     7
100
AcDbLine
 10
427.5037945276502
 20
180.1486373039016
 30
0.0
 11
427.5037945276502
 21
186.4986373039016
 31
0.0
  0
LINE
  5
E75
330
1F
100
AcDbEntity
  8
0
 62
     7
100
AcDbLine
 10
432.2281945276502
 20
135.6986373039016
 30
0.0
 11
432.2281945276502
 21
142.0486373039016
 31
0.0
  0
LINE
  5
E76
330
1F
100
AcDbEntity
  8
0
 62
     7
100
AcDbLine
 10
432.2281945276502
 20
148.3986373039016
 30
0.0
 11
427.5037945276502
 21
148.3986373039016
 31
0.0
  0
LINE
  5
E77
330
1F
100
AcDbEntity
  8
0
 62
     7
100
AcDbLine
 10
432.2281945276502
 20
142.0486373039016
 30
0.0
 11
432.2281945276502
 21
148.3986373039016
 31
0.0
  0
LINE
  5
E78
330
1F
100
AcDbEntity
  8
0
 62
     7
100
AcDbLine
 10
432.2281945276502
 20
161.0986373039016
 30
0.0
 11
427.5037945276502
 21
161.0986373039016
 31
0.0
  0
LINE
  5
E79
330
1F
100
AcDbEntity
  8
0
 62
     7
100
AcDbLine
 10
432.2281945276502
 20
161.0986373039016
 30
0.0
 11
432.2281945276502
 21
167.4486373039016
 31
0.0
  0
LINE
  5
E7A
330
1F
100
AcDbEntity
  8
0
 62
     7
100
AcDbLine
 10
432.2281945276502
 20
173.7986373039017
 30
0.0
 11
427.5037945276502
 21
173.7986373039017
 31
0.0
  0
LINE
  5
E7B
330
1F
100
AcDbEntity
  8
0
 62
     7
100
AcDbLine
 10
432.2281945276502
 20
167.4486373039016
 30
0.0
 11
432.2281945276502
 21
173.7986373039017
 31
0.0
  0
LINE
  5
E7C
330
1F
100
AcDbEntity
  8
0
 62
     7
100
AcDbLine
 10
432.2281945276502
 20
186.4986373039016
 30
0.0
 11
427.5037945276502
 21
186.4986373039016
 31
0.0
  0
LINE
  5
E7D
330
1F
100
AcDbEntity
  8
0
 62
     7
100
AcDbLine
 10
432.2281945276502
 20
186.4986373039016
 30
0.0
 11
432.2281945276502
 21
218.2486373039017
 31
0.0
  0
LINE
  5
E7E
330
1F
100
AcDbEntity
  8
0
 62
     7
100
AcDbLine
 10
432.2281945276502
 20
224.5986373039016
 30
0.0
 11
427.5037945276501
 21
224.5986373039016
 31
0.0
  0
LINE
  5
E7F
330
1F
100
AcDbEntity
  8
0
 62
     7
100
AcDbLine
 10
432.2281945276502
 20
218.2486373039017
 30
0.0
 11
432.2281945276502
 21
224.5986373039016
 31
0.0
  0
LINE
  5
E80
330
1F
100
AcDbEntity
  8
0
 62
     7
100
AcDbLine
 10
400.4781945276502
 20
135.6986373039016
 30
0.0
 11
394.1281945276502
 21
135.6986373039016
 31
0.0
  0
LINE
  5
E81
330
1F
100
AcDbEntity
  8
0
 62
     7
100
AcDbLine
 10
394.1281945276502
 20
135.6986373039016
 30
0.0
 11
387.7781945276502
 21
135.6986373039016
 31
0.0
  0
LINE
  5
E82
330
1F
100
AcDbEntity
  8
0
 62
     7
100
AcDbLine
 10
343.3281945276501
 20
135.6986373039016
 30
0.0
 11
336.9781945276502
 21
135.6986373039016
 31
0.0
  0
LINE
  5
E83
330
1F
100
AcDbEntity
  8
0
 62
     7
100
AcDbLine
 10
349.6781945276501
 20
135.6986373039016
 30
0.0
 11
343.3281945276501
 21
135.6986373039016
 31
0.0
  0
LINE
  5
E84
330
1F
100
AcDbEntity
  8
0
 62
     7
100
AcDbLine
 10
305.2281945276502
 20
148.3986373039016
 30
0.0
 11
305.2281945276502
 21
154.7486373039017
 31
0.0
  0
LINE
  5
E85
330
1F
100
AcDbEntity
  8
0
 62
     7
100
AcDbLine
 10
305.2281945276502
 20
154.7486373039017
 30
0.0
 11
305.2281945276502
 21
161.0986373039016
 31
0.0
  0
LINE
  5
E86
330
1F
100
AcDbEntity
  8
0
 62
     7
100
AcDbLine
 10
305.2281945276502
 20
173.7986373039017
 30
0.0
 11
305.2281945276502
 21
180.1486373039016
 31
0.0
  0
LINE
  5
E87
330
1F
100
AcDbEntity
  8
0
 62
     7
100
AcDbLine
 10
305.2281945276502
 20
180.1486373039016
 30
0.0
 11
305.2281945276502
 21
186.4986373039016
 31
0.0
  0
LINE
  5
E88
330
1F
100
AcDbEntity
  8
0
 62
     7
100
AcDbLine
 10
387.7781945276502
 20
135.6986373039016
 30
0.0
 11
387.7781945276502
 21
140.4230373039016
 31
0.0
  0
LINE
  5
E89
330
1F
100
AcDbEntity
  8
0
 62
     7
100
AcDbLine
 10
387.7781945276502
 20
140.4230373039016
 30
0.0
 11
381.4281945276501
 21
140.4230373039016
 31
0.0
  0
LINE
  5
E8A
330
1F
100
AcDbEntity
  8
0
 62
     7
100
AcDbLine
 10
349.6781945276501
 20
135.6986373039016
 30
0.0
 11
349.6781945276501
 21
140.4230373039016
 31
0.0
  0
LINE
  5
E8B
330
1F
100
AcDbEntity
  8
0
 62
     7
100
AcDbLine
 10
336.9781945276502
 20
135.6986373039016
 30
0.0
 11
336.9781945276502
 21
140.4230373039016
 31
0.0
  0
LINE
  5
E8C
330
1F
100
AcDbEntity
  8
0
 62
     7
100
AcDbLine
 10
336.9781945276502
 20
140.4230373039016
 30
0.0
 11
330.6281945276502
 21
140.4230373039016
 31
0.0
  0
LINE
  5
E8D
330
1F
100
AcDbEntity
  8
0
 62
     7
100
AcDbLine
 10
330.6281945276502
 20
140.4230373039016
 30
0.0
 11
324.2781945276502
 21
140.4230373039016
 31
0.0
  0
LINE
  5
E8E
330
1F
100
AcDbEntity
  8
0
 62
     7
100
AcDbLine
 10
309.9525945276501
 20
218.2486373039017
 30
0.0
 11
309.9525945276501
 21
224.5986373039017
 31
0.0
  0
LINE
  5
E8F
330
1F
100
AcDbEntity
  8
0
 62
     7
100
AcDbLine
 10
309.9525945276502
 20
186.4986373039016
 30
0.0
 11
309.9525945276501
 21
218.2486373039017
 31
0.0
  0
LINE
  5
E90
330
1F
100
AcDbEntity
  8
0
 62
     7
100
AcDbLine
 10
309.9525945276502
 20
186.4986373039016
 30
0.0
 11
305.2281945276502
 21
186.4986373039016
 31
0.0
  0
LINE
  5
E91
330
1F
100
AcDbEntity
  8
0
 62
     7
100
AcDbLine
 10
309.9525945276502
 20
167.4486373039016
 30
0.0
 11
309.9525945276502
 21
173.7986373039017
 31
0.0
  0
LINE
  5
E92
330
1F
100
AcDbEntity
  8
0
 62
     7
100
AcDbLine
 10
309.9525945276502
 20
173.7986373039017
 30
0.0
 11
305.2281945276502
 21
173.7986373039017
 31
0.0
  0
LINE
  5
E93
330
1F
100
AcDbEntity
  8
0
 62
     7
100
AcDbLine
 10
309.9525945276502
 20
161.0986373039016
 30
0.0
 11
309.9525945276502
 21
167.4486373039016
 31
0.0
  0
LINE
  5
E94
330
1F
100
AcDbEntity
  8
0
 62
     7
100
AcDbLine
 10
309.9525945276502
 20
161.0986373039016
 30
0.0
 11
305.2281945276502
 21
161.0986373039016
 31
0.0
  0
LINE
  5
E95
330
1F
100
AcDbEntity
  8
0
 62
     7
100
AcDbLine
 10
309.9525945276501
 20
142.0486373039016
 30
0.0
 11
309.9525945276501
 21
148.3986373039016
 31
0.0
  0
LINE
  5
E96
330
1F
100
AcDbEntity
  8
0
 62
     7
100
AcDbLine
 10
309.9525945276501
 20
148.3986373039016
 30
0.0
 11
305.2281945276502
 21
148.3986373039016
 31
0.0
  0
LINE
  5
E97
330
1F
100
AcDbEntity
  8
0
 62
     7
100
AcDbLine
 10
419.5281945276502
 20
135.6986373039016
 30
0.0
 11
419.5281945276502
 21
140.4230373039016
 31
0.0
  0
LINE
  5
E98
330
1F
100
AcDbEntity
  8
0
 62
     7
100
AcDbLine
 10
425.8781945276502
 20
135.6986373039016
 30
0.0
 11
419.5281945276502
 21
135.6986373039016
 31
0.0
  0
LINE
  5
E99
330
1F
100
AcDbEntity
  8
0
 62
     7
100
AcDbLine
 10
432.2281945276502
 20
135.6986373039016
 30
0.0
 11
425.8781945276502
 21
135.6986373039016
 31
0.0
  0
LINE
  5
E9A
330
1F
100
AcDbEntity
  8
0
 62
     7
100
AcDbLine
 10
413.1781945276502
 20
140.4230373039016
 30
0.0
 11
406.8281945276502
 21
140.4230373039016
 31
0.0
  0
LINE
  5
E9B
330
1F
100
AcDbEntity
  8
0
 62
     7
100
AcDbLine
 10
419.5281945276502
 20
140.4230373039016
 30
0.0
 11
413.1781945276502
 21
140.4230373039016
 31
0.0
  0
LINE
  5
E9C
330
1F
100
AcDbEntity
  8
0
 62
     7
100
AcDbLine
 10
406.8281945276502
 20
140.4230373039016
 30
0.0
 11
400.4781945276502
 21
140.4230373039016
 31
0.0
  0
LINE
  5
E9D
330
1F
100
AcDbEntity
  8
0
 62
     7
100
AcDbLine
 10
400.4781945276502
 20
135.6986373039016
 30
0.0
 11
400.4781945276502
 21
140.4230373039016
 31
0.0
  0
LINE
  5
E9E
330
1F
100
AcDbEntity
  8
0
 62
     7
100
AcDbLine
 10
309.9525945276501
 20
237.2986373039017
 30
0.0
 11
305.2281945276502
 21
237.2986373039017
 31
0.0
  0
LINE
  5
E9F
330
1F
100
AcDbEntity
  8
0
 62
     7
100
AcDbLine
 10
309.9525945276501
 20
237.2986373039017
 30
0.0
 11
309.9525945276501
 21
243.6486373039017
 31
0.0
  0
LINE
  5
EA0
330
1F
100
AcDbEntity
  8
0
 62
     7
100
AcDbLine
 10
309.9525945276501
 20
243.6486373039017
 30
0.0
 11
309.9525945276501
 21
249.9986373039017
 31
0.0
  0
LINE
  5
EA1
330
1F
100
AcDbEntity
  8
0
 62
     7
100
AcDbLine
 10
305.2281945276502
 20
230.9486373039016
 30
0.0
 11
305.2281945276502
 21
237.2986373039017
 31
0.0
  0
LINE
  5
EA2
330
1F
100
AcDbEntity
  8
0
 62
     7
100
AcDbLine
 10
305.2281945276502
 20
224.5986373039017
 30
0.0
 11
305.2281945276502
 21
230.9486373039016
 31
0.0
  0
LINE
  5
EA3
330
1F
100
AcDbEntity
  8
0
 62
     7
100
AcDbLine
 10
309.9525945276501
 20
224.5986373039017
 30
0.0
 11
305.2281945276502
 21
224.5986373039017
 31
0.0
  0
LINE
  5
EA4
330
1F
100
AcDbEntity
  8
0
 62
     7
100
AcDbLine
 10
356.0281945276502
 20
257.9742373039016
 30
0.0
 11
349.6781945276501
 21
257.9742373039016
 31
0.0
  0
LINE
  5
EA5
330
1F
100
AcDbEntity
  8
0
 62
     7
100
AcDbLine
 10
387.7781945276502
 20
257.9742373039016
 30
0.0
 11
387.7781945276502
 21
262.6986373039016
 31
0.0
  0
LINE
  5
EA6
330
1F
100
AcDbEntity
  8
0
 62
     7
100
AcDbLine
 10
394.1281945276502
 20
262.6986373039016
 30
0.0
 11
387.7781945276502
 21
262.6986373039016
 31
0.0
  0
LINE
  5
EA7
330
1F
100
AcDbEntity
  8
0
 62
     7
100
AcDbLine
 10
400.4781945276502
 20
262.6986373039016
 30
0.0
 11
394.1281945276502
 21
262.6986373039016
 31
0.0
  0
LINE
  5
EA8
330
1F
100
AcDbEntity
  8
0
 62
     7
100
AcDbLine
 10
400.4781945276502
 20
257.9742373039016
 30
0.0
 11
400.4781945276502
 21
262.6986373039016
 31
0.0
  0
LINE
  5
EA9
330
1F
100
AcDbEntity
  8
0
 62
     7
100
AcDbLine
 10
427.5037945276501
 20
224.5986373039017
 30
0.0
 11
427.5037945276501
 21
230.9486373039016
 31
0.0
  0
LINE
  5
EAA
330
1F
100
AcDbEntity
  8
0
 62
     7
100
AcDbLine
 10
427.5037945276501
 20
230.9486373039016
 30
0.0
 11
427.5037945276501
 21
237.2986373039017
 31
0.0
  0
LINE
  5
EAB
330
1F
100
AcDbEntity
  8
0
 62
     7
100
AcDbLine
 10
432.2281945276501
 20
243.6486373039016
 30
0.0
 11
432.2281945276501
 21
249.9986373039017
 31
0.0
  0
LINE
  5
EAC
330
1F
100
AcDbEntity
  8
0
 62
     7
100
AcDbLine
 10
432.2281945276501
 20
237.2986373039016
 30
0.0
 11
432.2281945276501
 21
243.6486373039016
 31
0.0
  0
LINE
  5
EAD
330
1F
100
AcDbEntity
  8
0
 62
     7
100
AcDbLine
 10
432.2281945276501
 20
237.2986373039016
 30
0.0
 11
427.5037945276501
 21
237.2986373039017
 31
0.0
  0
LINE
  5
EAE
330
1F
100
AcDbEntity
  8
0
 62
     7
100
AcDbLine
 10
427.5037945276501
 20
249.9986373039017
 30
0.0
 11
432.2281945276501
 21
249.9986373039017
 31
0.0
  0
LINE
  5
EAF
330
1F
100
AcDbEntity
  8
0
 62
     7
100
AcDbLine
 10
381.4281945276501
 20
257.9742373039016
 30
0.0
 11
387.7781945276502
 21
257.9742373039016
 31
0.0
  0
LINE
  5
EB0
330
1F
100
AcDbEntity
  8
0
100
AcDbLine
 10
381.4281945276501
 20
257.9742373039016
 30
0.0
 11
356.0281945276502
 21
257.9742373039016
 31
0.0
  0
LINE
  5
EB1
330
1F
100
AcDbEntity
  8
0
100
AcDbLine
 10
381.4281945276501
 20
140.4230373039016
 30
0.0
 11
356.0281945276502
 21
140.4230373039016
 31
0.0
  0
LINE
  5
EB2
330
1F
100
AcDbEntity
  8
0
 62
     7
100
AcDbLine
 10
353.8591372259629
 20
-5.446066234565592
 30
0.0
 11
347.5091372259628
 21
-5.446066234565592
 31
0.0
  0
LINE
  5
EB3
330
1F
100
AcDbEntity
  8
0
 62
     7
100
AcDbLine
 10
315.7591372259629
 20
-10.17046623456554
 30
0.0
 11
315.7591372259629
 21
-5.446066234565563
 31
0.0
  0
LINE
  5
EB4
330
1F
100
AcDbEntity
  8
0
 62
     7
100
AcDbLine
 10
322.1091372259629
 20
-5.446066234565592
 30
0.0
 11
315.7591372259629
 21
-5.446066234565563
 31
0.0
  0
LINE
  5
EB5
330
1F
100
AcDbEntity
  8
0
 62
     7
100
AcDbLine
 10
417.3591372259627
 20
112.1051337654345
 30
0.0
 11
417.3591372259627
 21
116.8295337654345
 31
0.0
  0
LINE
  5
EB6
330
1F
100
AcDbEntity
  8
0
 62
     7
100
AcDbLine
 10
425.3347372259628
 20
110.4795337654344
 30
0.0
 11
425.3347372259628
 21
116.8295337654345
 31
0.0
  0
LINE
  5
EB7
330
1F
100
AcDbEntity
  8
0
 62
     7
100
AcDbLine
 10
307.7835372259628
 20
-10.17046623456554
 30
0.0
 11
307.7835372259628
 21
-3.820466234565544
 31
0.0
  0
LINE
  5
EB8
330
1F
100
AcDbEntity
  8
0
 62
     7
100
AcDbLine
 10
315.7591372259629
 20
-10.17046623456554
 30
0.0
 11
307.7835372259628
 21
-10.17046623456554
 31
0.0
  0
LINE
  5
EB9
330
1F
100
AcDbEntity
  8
0
 62
     7
100
AcDbLine
 10
411.0091372259628
 20
112.1051337654345
 30
0.0
 11
417.3591372259627
 21
112.1051337654345
 31
0.0
  0
LINE
  5
EBA
330
1F
100
AcDbEntity
  8
0
 62
     7
100
AcDbLine
 10
315.7591372259629
 20
116.8295337654345
 30
0.0
 11
309.4091372259629
 21
116.8295337654345
 31
0.0
  0
LINE
  5
EBB
330
1F
100
AcDbEntity
  8
0
 62
     7
100
AcDbLine
 10
303.0591372259629
 20
104.1295337654345
 30
0.0
 11
307.7835372259628
 21
104.1295337654345
 31
0.0
  0
LINE
  5
EBC
330
1F
100
AcDbEntity
  8
0
 62
     7
100
AcDbLine
 10
303.0591372259629
 20
104.1295337654345
 30
0.0
 11
303.0591372259629
 21
110.4795337654344
 31
0.0
  0
LINE
  5
EBD
330
1F
100
AcDbEntity
  8
0
 62
     7
100
AcDbLine
 10
303.0591372259629
 20
110.4795337654344
 30
0.0
 11
303.0591372259629
 21
116.8295337654345
 31
0.0
  0
LINE
  5
EBE
330
1F
100
AcDbEntity
  8
0
 62
     7
100
AcDbLine
 10
309.4091372259629
 20
116.8295337654345
 30
0.0
 11
303.0591372259629
 21
116.8295337654345
 31
0.0
  0
LINE
  5
EBF
330
1F
100
AcDbEntity
  8
0
 62
     7
100
AcDbLine
 10
315.7591372259628
 20
112.1051337654345
 30
0.0
 11
315.7591372259629
 21
116.8295337654345
 31
0.0
  0
LINE
  5
EC0
330
1F
100
AcDbEntity
  8
0
 62
     7
100
AcDbLine
 10
425.3347372259628
 20
104.1295337654345
 30
0.0
 11
425.3347372259628
 21
110.4795337654344
 31
0.0
  0
LINE
  5
EC1
330
1F
100
AcDbEntity
  8
0
 62
     7
100
AcDbLine
 10
425.3347372259628
 20
116.8295337654345
 30
0.0
 11
417.3591372259627
 21
116.8295337654345
 31
0.0
  0
LINE
  5
EC2
330
1F
100
AcDbEntity
  8
0
 62
     7
100
AcDbLine
 10
411.0091372259628
 20
112.1051337654345
 30
0.0
 11
398.3091372259628
 21
112.1051337654345
 31
0.0
  0
LINE
  5
EC3
330
1F
100
AcDbEntity
  8
0
 62
     7
100
AcDbLine
 10
347.5091372259628
 20
112.1051337654345
 30
0.0
 11
347.5091372259628
 21
116.8295337654345
 31
0.0
  0
LINE
  5
EC4
330
1F
100
AcDbEntity
  8
0
 62
     7
100
AcDbLine
 10
347.5091372259628
 20
116.8295337654345
 30
0.0
 11
341.1591372259628
 21
116.8295337654345
 31
0.0
  0
LINE
  5
EC5
330
1F
100
AcDbEntity
  8
0
 62
     7
100
AcDbLine
 10
341.1591372259628
 20
116.8295337654345
 30
0.0
 11
334.8091372259629
 21
116.8295337654345
 31
0.0
  0
LINE
  5
EC6
330
1F
100
AcDbEntity
  8
0
 62
     7
100
AcDbLine
 10
334.8091372259629
 20
112.1051337654345
 30
0.0
 11
334.8091372259629
 21
116.8295337654345
 31
0.0
  0
LINE
  5
EC7
330
1F
100
AcDbEntity
  8
0
 62
     7
100
AcDbLine
 10
334.8091372259629
 20
112.1051337654345
 30
0.0
 11
322.1091372259629
 21
112.1051337654345
 31
0.0
  0
LINE
  5
EC8
330
1F
100
AcDbEntity
  8
0
 62
     7
100
AcDbLine
 10
322.1091372259629
 20
112.1051337654345
 30
0.0
 11
315.7591372259628
 21
112.1051337654345
 31
0.0
  0
LINE
  5
EC9
330
1F
100
AcDbEntity
  8
0
 62
     7
100
AcDbLine
 10
425.334737225963
 20
2.529533765434451
 30
0.0
 11
425.334737225963
 21
8.879533765434445
 31
0.0
  0
LINE
  5
ECA
330
1F
100
AcDbEntity
  8
0
 62
     7
100
AcDbLine
 10
425.334737225963
 20
8.879533765434445
 30
0.0
 11
425.334737225963
 21
15.22953376543444
 31
0.0
  0
LINE
  5
ECB
330
1F
100
AcDbEntity
  8
0
 62
     7
100
AcDbLine
 10
425.334737225963
 20
27.92953376543448
 30
0.0
 11
425.334737225963
 21
34.27953376543445
 31
0.0
  0
LINE
  5
ECC
330
1F
100
AcDbEntity
  8
0
 62
     7
100
AcDbLine
 10
425.334737225963
 20
34.27953376543445
 30
0.0
 11
425.334737225963
 21
40.62953376543445
 31
0.0
  0
LINE
  5
ECD
330
1F
100
AcDbEntity
  8
0
 62
     7
100
AcDbLine
 10
430.0591372259629
 20
-10.17046623456557
 30
0.0
 11
430.0591372259629
 21
-3.820466234565572
 31
0.0
  0
LINE
  5
ECE
330
1F
100
AcDbEntity
  8
0
 62
     7
100
AcDbLine
 10
430.0591372259629
 20
2.529533765434451
 30
0.0
 11
425.334737225963
 21
2.529533765434451
 31
0.0
  0
LINE
  5
ECF
330
1F
100
AcDbEntity
  8
0
 62
     7
100
AcDbLine
 10
430.0591372259629
 20
-3.820466234565572
 30
0.0
 11
430.0591372259629
 21
2.529533765434451
 31
0.0
  0
LINE
  5
ED0
330
1F
100
AcDbEntity
  8
0
 62
     7
100
AcDbLine
 10
430.0591372259629
 20
15.22953376543444
 30
0.0
 11
425.334737225963
 21
15.22953376543444
 31
0.0
  0
LINE
  5
ED1
330
1F
100
AcDbEntity
  8
0
 62
     7
100
AcDbLine
 10
430.0591372259629
 20
15.22953376543444
 30
0.0
 11
430.0591372259629
 21
21.57953376543446
 31
0.0
  0
LINE
  5
ED2
330
1F
100
AcDbEntity
  8
0
 62
     7
100
AcDbLine
 10
430.0591372259629
 20
27.92953376543448
 30
0.0
 11
425.334737225963
 21
27.92953376543448
 31
0.0
  0
LINE
  5
ED3
330
1F
100
AcDbEntity
  8
0
 62
     7
100
AcDbLine
 10
430.0591372259629
 20
21.57953376543446
 30
0.0
 11
430.0591372259629
 21
27.92953376543448
 31
0.0
  0
LINE
  5
ED4
330
1F
100
AcDbEntity
  8
0
 62
     7
100
AcDbLine
 10
430.0591372259629
 20
40.62953376543445
 30
0.0
 11
425.334737225963
 21
40.62953376543445
 31
0.0
  0
LINE
  5
ED5
330
1F
100
AcDbEntity
  8
0
 62
     7
100
AcDbLine
 10
430.0591372259629
 20
40.62953376543445
 30
0.0
 11
430.0591372259629
 21
72.37953376543447
 31
0.0
  0
LINE
  5
ED6
330
1F
100
AcDbEntity
  8
0
 62
     7
100
AcDbLine
 10
430.0591372259629
 20
78.72953376543444
 30
0.0
 11
425.3347372259628
 21
78.72953376543444
 31
0.0
  0
LINE
  5
ED7
330
1F
100
AcDbEntity
  8
0
 62
     7
100
AcDbLine
 10
430.0591372259629
 20
72.37953376543447
 30
0.0
 11
430.0591372259629
 21
78.72953376543444
 31
0.0
  0
LINE
  5
ED8
330
1F
100
AcDbEntity
  8
0
 62
     7
100
AcDbLine
 10
398.3091372259629
 20
-10.17046623456557
 30
0.0
 11
391.9591372259629
 21
-10.17046623456557
 31
0.0
  0
LINE
  5
ED9
330
1F
100
AcDbEntity
  8
0
 62
     7
100
AcDbLine
 10
391.9591372259629
 20
-10.17046623456557
 30
0.0
 11
385.6091372259629
 21
-10.17046623456557
 31
0.0
  0
LINE
  5
EDA
330
1F
100
AcDbEntity
  8
0
 62
     7
100
AcDbLine
 10
341.1591372259628
 20
-10.17046623456557
 30
0.0
 11
334.8091372259629
 21
-10.17046623456557
 31
0.0
  0
LINE
  5
EDB
330
1F
100
AcDbEntity
  8
0
 62
     7
100
AcDbLine
 10
347.5091372259628
 20
-10.17046623456557
 30
0.0
 11
341.1591372259628
 21
-10.17046623456557
 31
0.0
  0
LINE
  5
EDC
330
1F
100
AcDbEntity
  8
0
 62
     7
100
AcDbLine
 10
303.0591372259629
 20
2.529533765434451
 30
0.0
 11
303.0591372259629
 21
8.879533765434473
 31
0.0
  0
LINE
  5
EDD
330
1F
100
AcDbEntity
  8
0
 62
     7
100
AcDbLine
 10
303.0591372259629
 20
8.879533765434473
 30
0.0
 11
303.0591372259629
 21
15.22953376543444
 31
0.0
  0
LINE
  5
EDE
330
1F
100
AcDbEntity
  8
0
 62
     7
100
AcDbLine
 10
303.0591372259629
 20
27.92953376543448
 30
0.0
 11
303.0591372259629
 21
34.27953376543445
 31
0.0
  0
LINE
  5
EDF
330
1F
100
AcDbEntity
  8
0
 62
     7
100
AcDbLine
 10
303.0591372259629
 20
34.27953376543445
 30
0.0
 11
303.0591372259629
 21
40.62953376543442
 31
0.0
  0
LINE
  5
EE0
330
1F
100
AcDbEntity
  8
0
 62
     7
100
AcDbLine
 10
385.6091372259629
 20
-10.17046623456557
 30
0.0
 11
385.6091372259629
 21
-5.446066234565563
 31
0.0
  0
LINE
  5
EE1
330
1F
100
AcDbEntity
  8
0
 62
     7
100
AcDbLine
 10
385.6091372259629
 20
-5.446066234565563
 30
0.0
 11
379.2591372259628
 21
-5.446066234565563
 31
0.0
  0
LINE
  5
EE2
330
1F
100
AcDbEntity
  8
0
 62
     7
100
AcDbLine
 10
347.5091372259628
 20
-10.17046623456557
 30
0.0
 11
347.5091372259628
 21
-5.446066234565592
 31
0.0
  0
LINE
  5
EE3
330
1F
100
AcDbEntity
  8
0
 62
     7
100
AcDbLine
 10
334.8091372259629
 20
-10.17046623456557
 30
0.0
 11
334.8091372259629
 21
-5.446066234565592
 31
0.0
  0
LINE
  5
EE4
330
1F
100
AcDbEntity
  8
0
 62
     7
100
AcDbLine
 10
334.8091372259629
 20
-5.446066234565592
 30
0.0
 11
328.4591372259629
 21
-5.446066234565592
 31
0.0
  0
LINE
  5
EE5
330
1F
100
AcDbEntity
  8
0
 62
     7
100
AcDbLine
 10
328.4591372259629
 20
-5.446066234565592
 30
0.0
 11
322.1091372259629
 21
-5.446066234565592
 31
0.0
  0
LINE
  5
EE6
330
1F
100
AcDbEntity
  8
0
 62
     7
100
AcDbLine
 10
307.7835372259628
 20
72.37953376543447
 30
0.0
 11
307.7835372259628
 21
78.7295337654345
 31
0.0
  0
LINE
  5
EE7
330
1F
100
AcDbEntity
  8
0
 62
     7
100
AcDbLine
 10
307.7835372259629
 20
40.62953376543442
 30
0.0
 11
307.7835372259628
 21
72.37953376543447
 31
0.0
  0
LINE
  5
EE8
330
1F
100
AcDbEntity
  8
0
 62
     7
100
AcDbLine
 10
307.7835372259629
 20
40.62953376543442
 30
0.0
 11
303.0591372259629
 21
40.62953376543442
 31
0.0
  0
LINE
  5
EE9
330
1F
100
AcDbEntity
  8
0
 62
     7
100
AcDbLine
 10
307.7835372259629
 20
21.57953376543446
 30
0.0
 11
307.7835372259629
 21
27.92953376543448
 31
0.0
  0
LINE
  5
EEA
330
1F
100
AcDbEntity
  8
0
 62
     7
100
AcDbLine
 10
307.7835372259629
 20
27.92953376543448
 30
0.0
 11
303.0591372259629
 21
27.92953376543448
 31
0.0
  0
LINE
  5
EEB
330
1F
100
AcDbEntity
  8
0
 62
     7
100
AcDbLine
 10
307.7835372259629
 20
15.22953376543444
 30
0.0
 11
307.7835372259629
 21
21.57953376543446
 31
0.0
  0
LINE
  5
EEC
330
1F
100
AcDbEntity
  8
0
 62
     7
100
AcDbLine
 10
307.7835372259629
 20
15.22953376543444
 30
0.0
 11
303.0591372259629
 21
15.22953376543444
 31
0.0
  0
LINE
  5
EED
330
1F
100
AcDbEntity
  8
0
 62
     7
100
AcDbLine
 10
307.7835372259628
 20
-3.820466234565544
 30
0.0
 11
307.7835372259628
 21
2.529533765434451
 31
0.0
  0
LINE
  5
EEE
330
1F
100
AcDbEntity
  8
0
 62
     7
100
AcDbLine
 10
307.7835372259628
 20
2.529533765434451
 30
0.0
 11
303.0591372259629
 21
2.529533765434451
 31
0.0
  0
LINE
  5
EEF
330
1F
100
AcDbEntity
  8
0
 62
     7
100
AcDbLine
 10
417.3591372259629
 20
-10.17046623456557
 30
0.0
 11
417.3591372259629
 21
-5.446066234565563
 31
0.0
  0
LINE
  5
EF0
330
1F
100
AcDbEntity
  8
0
 62
     7
100
AcDbLine
 10
423.7091372259629
 20
-10.17046623456557
 30
0.0
 11
417.3591372259629
 21
-10.17046623456557
 31
0.0
  0
LINE
  5
EF1
330
1F
100
AcDbEntity
  8
0
 62
     7
100
AcDbLine
 10
430.0591372259629
 20
-10.17046623456557
 30
0.0
 11
423.7091372259629
 21
-10.17046623456557
 31
0.0
  0
LINE
  5
EF2
330
1F
100
AcDbEntity
  8
0
 62
     7
100
AcDbLine
 10
411.0091372259629
 20
-5.446066234565563
 30
0.0
 11
404.6591372259629
 21
-5.446066234565563
 31
0.0
  0
LINE
  5
EF3
330
1F
100
AcDbEntity
  8
0
 62
     7
100
AcDbLine
 10
417.3591372259629
 20
-5.446066234565563
 30
0.0
 11
411.0091372259629
 21
-5.446066234565563
 31
0.0
  0
LINE
  5
EF4
330
1F
100
AcDbEntity
  8
0
 62
     7
100
AcDbLine
 10
404.6591372259629
 20
-5.446066234565563
 30
0.0
 11
398.3091372259629
 21
-5.446066234565563
 31
0.0
  0
LINE
  5
EF5
330
1F
100
AcDbEntity
  8
0
 62
     7
100
AcDbLine
 10
398.3091372259629
 20
-10.17046623456557
 30
0.0
 11
398.3091372259629
 21
-5.446066234565563
 31
0.0
  0
LINE
  5
EF6
330
1F
100
AcDbEntity
  8
0
 62
     7
100
AcDbLine
 10
307.7835372259628
 20
91.42953376543448
 30
0.0
 11
303.0591372259629
 21
91.42953376543448
 31
0.0
  0
LINE
  5
EF7
330
1F
100
AcDbEntity
  8
0
 62
     7
100
AcDbLine
 10
307.7835372259628
 20
91.42953376543448
 30
0.0
 11
307.7835372259628
 21
97.77953376543451
 31
0.0
  0
LINE
  5
EF8
330
1F
100
AcDbEntity
  8
0
 62
     7
100
AcDbLine
 10
307.7835372259628
 20
97.77953376543451
 30
0.0
 11
307.7835372259628
 21
104.1295337654345
 31
0.0
  0
LINE
  5
EF9
330
1F
100
AcDbEntity
  8
0
 62
     7
100
AcDbLine
 10
303.0591372259629
 20
85.07953376543446
 30
0.0
 11
303.0591372259629
 21
91.42953376543448
 31
0.0
  0
LINE
  5
EFA
330
1F
100
AcDbEntity
  8
0
 62
     7
100
AcDbLine
 10
303.0591372259629
 20
78.7295337654345
 30
0.0
 11
303.0591372259629
 21
85.07953376543446
 31
0.0
  0
LINE
  5
EFB
330
1F
100
AcDbEntity
  8
0
 62
     7
100
AcDbLine
 10
307.7835372259628
 20
78.7295337654345
 30
0.0
 11
303.0591372259629
 21
78.7295337654345
 31
0.0
  0
LINE
  5
EFC
330
1F
100
AcDbEntity
  8
0
 62
     7
100
AcDbLine
 10
353.8591372259629
 20
112.1051337654345
 30
0.0
 11
347.5091372259628
 21
112.1051337654345
 31
0.0
  0
LINE
  5
EFD
330
1F
100
AcDbEntity
  8
0
 62
     7
100
AcDbLine
 10
385.6091372259629
 20
112.1051337654345
 30
0.0
 11
385.6091372259629
 21
116.8295337654345
 31
0.0
  0
LINE
  5
EFE
330
1F
100
AcDbEntity
  8
0
 62
     7
100
AcDbLine
 10
391.9591372259629
 20
116.8295337654345
 30
0.0
 11
385.6091372259629
 21
116.8295337654345
 31
0.0
  0
LINE
  5
EFF
330
1F
100
AcDbEntity
  8
0
 62
     7
100
AcDbLine
 10
398.3091372259629
 20
116.8295337654345
 30
0.0
 11
391.9591372259629
 21
116.8295337654345
 31
0.0
  0
LINE
  5
F00
330
1F
100
AcDbEntity
  8
0
 62
     7
100
AcDbLine
 10
398.3091372259629
 20
112.1051337654345
 30
0.0
 11
398.3091372259629
 21
116.8295337654345
 31
0.0
  0
LINE
  5
F01
330
1F
100
AcDbEntity
  8
0
 62
     7
100
AcDbLine
 10
425.3347372259628
 20
78.7295337654345
 30
0.0
 11
425.3347372259628
 21
85.07953376543446
 31
0.0
  0
LINE
  5
F02
330
1F
100
AcDbEntity
  8
0
 62
     7
100
AcDbLine
 10
425.3347372259628
 20
85.07953376543446
 30
0.0
 11
425.3347372259628
 21
91.42953376543448
 31
0.0
  0
LINE
  5
F03
330
1F
100
AcDbEntity
  8
0
 62
     7
100
AcDbLine
 10
430.0591372259628
 20
97.77953376543445
 30
0.0
 11
430.0591372259628
 21
104.1295337654345
 31
0.0
  0
LINE
  5
F04
330
1F
100
AcDbEntity
  8
0
 62
     7
100
AcDbLine
 10
430.0591372259628
 20
91.42953376543443
 30
0.0
 11
430.0591372259628
 21
97.77953376543445
 31
0.0
  0
LINE
  5
F05
330
1F
100
AcDbEntity
  8
0
 62
     7
100
AcDbLine
 10
430.0591372259628
 20
91.42953376543443
 30
0.0
 11
425.3347372259628
 21
91.42953376543448
 31
0.0
  0
LINE
  5
F06
330
1F
100
AcDbEntity
  8
0
 62
     7
100
AcDbLine
 10
425.3347372259628
 20
104.1295337654345
 30
0.0
 11
430.0591372259628
 21
104.1295337654345
 31
0.0
  0
LINE
  5
F07
330
1F
100
AcDbEntity
  8
0
 62
     7
100
AcDbLine
 10
379.2591372259628
 20
112.1051337654345
 30
0.0
 11
385.6091372259629
 21
112.1051337654345
 31
0.0
  0
LINE
  5
F08
330
1F
100
AcDbEntity
  8
0
100
AcDbLine
 10
379.2591372259628
 20
112.1051337654345
 30
0.0
 11
353.8591372259629
 21
112.1051337654345
 31
0.0
  0
LINE
  5
F09
330
1F
100
AcDbEntity
  8
0
100
AcDbLine
 10
379.2591372259628
 20
-5.446066234565563
 30
0.0
 11
353.8591372259629
 21
-5.446066234565592
 31
0.0
  0
LINE
  5
F0A
330
1F
100
AcDbEntity
  8
0
 62
     7
100
AcDbLine
 10
204.3484099065381
 20
-4.417496067805306
 30
0.0
 11
204.3484099065381
 21
-9.141896067805305
 31
0.0
  0
LINE
  5
F0B
330
1F
100
AcDbEntity
  8
0
 62
     7
100
AcDbLine
 10
217.0484099065382
 20
113.1337039321947
 30
0.0
 11
217.0484099065382
 21
117.8581039321947
 31
0.0
  0
LINE
  5
F0C
330
1F
100
AcDbEntity
  8
0
 62
     7
100
AcDbLine
 10
172.5984099065381
 20
3.558103932194697
 30
0.0
 11
172.5984099065381
 21
9.90810393219467
 31
0.0
  0
LINE
  5
F0D
330
1F
100
AcDbEntity
  8
0
 62
     7
100
AcDbLine
 10
299.5984099065381
 20
98.80810393219468
 30
0.0
 11
299.5984099065381
 21
105.1581039321947
 31
0.0
  0
LINE
  5
F0E
330
1F
100
AcDbEntity
  8
0
 62
     7
100
AcDbLine
 10
177.3228099065381
 20
-4.417496067805306
 30
0.0
 11
185.2984099065382
 21
-4.417496067805306
 31
0.0
  0
LINE
  5
F0F
330
1F
100
AcDbEntity
  8
0
 62
     7
100
AcDbLine
 10
177.3228099065381
 20
-4.417496067805306
 30
0.0
 11
177.3228099065381
 21
3.558103932194697
 31
0.0
  0
LINE
  5
F10
330
1F
100
AcDbEntity
  8
0
 62
     7
100
AcDbLine
 10
280.5484099065382
 20
117.8581039321947
 30
0.0
 11
286.8984099065382
 21
117.8581039321947
 31
0.0
  0
LINE
  5
F11
330
1F
100
AcDbEntity
  8
0
 62
     7
100
AcDbLine
 10
274.1984099065381
 20
117.8581039321947
 30
0.0
 11
280.5484099065382
 21
117.8581039321947
 31
0.0
  0
LINE
  5
F12
330
1F
100
AcDbEntity
  8
0
 62
     7
100
AcDbLine
 10
294.8740099065382
 20
105.1581039321947
 30
0.0
 11
294.8740099065382
 21
113.1337039321947
 31
0.0
  0
LINE
  5
F13
330
1F
100
AcDbEntity
  8
0
 62
     7
100
AcDbLine
 10
286.8984099065382
 20
113.1337039321947
 30
0.0
 11
294.8740099065382
 21
113.1337039321947
 31
0.0
  0
LINE
  5
F14
330
1F
100
AcDbEntity
  8
0
 62
     7
100
AcDbLine
 10
204.3484099065382
 20
113.1337039321947
 30
0.0
 11
204.3484099065382
 21
117.8581039321947
 31
0.0
  0
LINE
  5
F15
330
1F
100
AcDbEntity
  8
0
 62
     7
100
AcDbLine
 10
197.9984099065381
 20
117.8581039321947
 30
0.0
 11
204.3484099065382
 21
117.8581039321947
 31
0.0
  0
LINE
  5
F16
330
1F
100
AcDbEntity
  8
0
 62
     7
100
AcDbLine
 10
217.0484099065381
 20
-9.141896067805305
 30
0.0
 11
217.0484099065381
 21
-4.417496067805306
 31
0.0
  0
LINE
  5
F17
330
1F
100
AcDbEntity
  8
0
 62
     7
100
AcDbLine
 10
267.8484099065381
 20
-9.141896067805305
 30
0.0
 11
274.1984099065381
 21
-9.141896067805305
 31
0.0
  0
LINE
  5
F18
330
1F
100
AcDbEntity
  8
0
 62
     7
100
AcDbLine
 10
185.2984099065382
 20
-9.141896067805305
 30
0.0
 11
191.6484099065381
 21
-9.141896067805305
 31
0.0
  0
LINE
  5
F19
330
1F
100
AcDbEntity
  8
0
 62
     7
100
AcDbLine
 10
191.6484099065381
 20
-9.141896067805305
 30
0.0
 11
197.9984099065381
 21
-9.141896067805305
 31
0.0
  0
LINE
  5
F1A
330
1F
100
AcDbEntity
  8
0
 62
     7
100
AcDbLine
 10
185.2984099065382
 20
113.1337039321947
 30
0.0
 11
185.2984099065382
 21
117.8581039321947
 31
0.0
  0
LINE
  5
F1B
330
1F
100
AcDbEntity
  8
0
 62
     7
100
AcDbLine
 10
177.3228099065382
 20
113.1337039321947
 30
0.0
 11
185.2984099065382
 21
113.1337039321947
 31
0.0
  0
LINE
  5
F1C
330
1F
100
AcDbEntity
  8
0
 62
     7
100
AcDbLine
 10
204.3484099065382
 20
113.1337039321947
 30
0.0
 11
210.6984099065382
 21
113.1337039321947
 31
0.0
  0
LINE
  5
F1D
330
1F
100
AcDbEntity
  8
0
 62
     7
100
AcDbLine
 10
210.6984099065382
 20
113.1337039321947
 30
0.0
 11
217.0484099065382
 21
113.1337039321947
 31
0.0
  0
LINE
  5
F1E
330
1F
100
AcDbEntity
  8
0
 62
     7
100
AcDbLine
 10
177.3228099065382
 20
105.1581039321947
 30
0.0
 11
177.3228099065382
 21
113.1337039321947
 31
0.0
  0
LINE
  5
F1F
330
1F
100
AcDbEntity
  8
0
 62
     7
100
AcDbLine
 10
172.5984099065381
 20
105.1581039321947
 30
0.0
 11
177.3228099065382
 21
105.1581039321947
 31
0.0
  0
LINE
  5
F20
330
1F
100
AcDbEntity
  8
0
 62
     7
100
AcDbLine
 10
172.5984099065381
 20
86.1081039321947
 30
0.0
 11
177.3228099065381
 21
86.1081039321947
 31
0.0
  0
LINE
  5
F21
330
1F
100
AcDbEntity
  8
0
 62
     7
100
AcDbLine
 10
177.3228099065381
 20
79.75810393219467
 30
0.0
 11
177.3228099065381
 21
86.1081039321947
 31
0.0
  0
LINE
  5
F22
330
1F
100
AcDbEntity
  8
0
 62
     7
100
AcDbLine
 10
177.3228099065381
 20
73.40810393219468
 30
0.0
 11
177.3228099065381
 21
79.75810393219467
 31
0.0
  0
LINE
  5
F23
330
1F
100
AcDbEntity
  8
0
 62
     7
100
AcDbLine
 10
172.5984099065381
 20
73.40810393219468
 30
0.0
 11
177.3228099065381
 21
73.40810393219468
 31
0.0
  0
LINE
  5
F24
330
1F
100
AcDbEntity
  8
0
 62
     7
100
AcDbLine
 10
172.5984099065381
 20
3.558103932194697
 30
0.0
 11
177.3228099065381
 21
3.558103932194697
 31
0.0
  0
LINE
  5
F25
330
1F
100
AcDbEntity
  8
0
 62
     7
100
AcDbLine
 10
267.8484099065382
 20
117.8581039321947
 30
0.0
 11
274.1984099065381
 21
117.8581039321947
 31
0.0
  0
LINE
  5
F26
330
1F
100
AcDbEntity
  8
0
 62
     7
100
AcDbLine
 10
191.6484099065381
 20
117.8581039321947
 30
0.0
 11
197.9984099065381
 21
117.8581039321947
 31
0.0
  0
LINE
  5
F27
330
1F
100
AcDbEntity
  8
0
 62
     7
100
AcDbLine
 10
185.2984099065382
 20
117.8581039321947
 30
0.0
 11
191.6484099065381
 21
117.8581039321947
 31
0.0
  0
LINE
  5
F28
330
1F
100
AcDbEntity
  8
0
 62
     7
100
AcDbLine
 10
172.5984099065381
 20
9.90810393219467
 30
0.0
 11
172.5984099065381
 21
16.25810393219465
 31
0.0
  0
LINE
  5
F29
330
1F
100
AcDbEntity
  8
0
 62
     7
100
AcDbLine
 10
172.5984099065381
 20
16.25810393219465
 30
0.0
 11
172.5984099065381
 21
22.60810393219462
 31
0.0
  0
LINE
  5
F2A
330
1F
100
AcDbEntity
  8
0
 62
     7
100
AcDbLine
 10
172.5984099065381
 20
86.1081039321947
 30
0.0
 11
172.5984099065381
 21
92.45810393219492
 31
0.0
  0
LINE
  5
F2B
330
1F
100
AcDbEntity
  8
0
 62
     7
100
AcDbLine
 10
172.5984099065381
 20
92.45810393219492
 30
0.0
 11
172.5984099065381
 21
98.80810393219468
 31
0.0
  0
LINE
  5
F2C
330
1F
100
AcDbEntity
  8
0
 62
     7
100
AcDbLine
 10
172.5984099065381
 20
98.80810393219468
 30
0.0
 11
172.5984099065381
 21
105.1581039321947
 31
0.0
  0
LINE
  5
F2D
330
1F
100
AcDbEntity
  8
0
 62
     7
100
AcDbLine
 10
280.5484099065382
 20
-9.141896067805305
 30
0.0
 11
286.8984099065382
 21
-9.141896067805305
 31
0.0
  0
LINE
  5
F2E
330
1F
100
AcDbEntity
  8
0
 62
     7
100
AcDbLine
 10
286.8984099065382
 20
-9.141896067805305
 30
0.0
 11
286.8984099065382
 21
-4.417496067805306
 31
0.0
  0
LINE
  5
F2F
330
1F
100
AcDbEntity
  8
0
 62
     7
100
AcDbLine
 10
274.1984099065381
 20
-9.141896067805305
 30
0.0
 11
280.5484099065382
 21
-9.141896067805305
 31
0.0
  0
LINE
  5
F30
330
1F
100
AcDbEntity
  8
0
 62
     7
100
AcDbLine
 10
197.9984099065381
 20
-9.141896067805305
 30
0.0
 11
204.3484099065381
 21
-9.141896067805305
 31
0.0
  0
LINE
  5
F31
330
1F
100
AcDbEntity
  8
0
 62
     7
100
AcDbLine
 10
185.2984099065382
 20
-9.141896067805305
 30
0.0
 11
185.2984099065382
 21
-4.417496067805306
 31
0.0
  0
LINE
  5
F32
330
1F
100
AcDbEntity
  8
0
 62
     7
100
AcDbLine
 10
210.6984099065382
 20
-4.417496067805306
 30
0.0
 11
217.0484099065381
 21
-4.417496067805306
 31
0.0
  0
LINE
  5
F33
330
1F
100
AcDbEntity
  8
0
 62
     7
100
AcDbLine
 10
204.3484099065381
 20
-4.417496067805306
 30
0.0
 11
210.6984099065382
 21
-4.417496067805306
 31
0.0
  0
LINE
  5
F34
330
1F
100
AcDbEntity
  8
0
 62
     7
100
AcDbLine
 10
299.5984099065381
 20
92.45810393219492
 30
0.0
 11
299.5984099065381
 21
98.80810393219468
 31
0.0
  0
LINE
  5
F35
330
1F
100
AcDbEntity
  8
0
 62
     7
100
AcDbLine
 10
299.5984099065381
 20
86.1081039321947
 30
0.0
 11
299.5984099065381
 21
92.45810393219492
 31
0.0
  0
LINE
  5
F36
330
1F
100
AcDbEntity
  8
0
 62
     7
100
AcDbLine
 10
294.8740099065382
 20
86.1081039321947
 30
0.0
 11
299.5984099065381
 21
86.1081039321947
 31
0.0
  0
LINE
  5
F37
330
1F
100
AcDbEntity
  8
0
 62
     7
100
AcDbLine
 10
294.8740099065382
 20
79.75810393219467
 30
0.0
 11
294.8740099065382
 21
86.1081039321947
 31
0.0
  0
LINE
  5
F38
330
1F
100
AcDbEntity
  8
0
 62
     7
100
AcDbLine
 10
294.8740099065382
 20
73.40810393219468
 30
0.0
 11
294.8740099065382
 21
79.75810393219467
 31
0.0
  0
LINE
  5
F39
330
1F
100
AcDbEntity
  8
0
 62
     7
100
AcDbLine
 10
294.8740099065382
 20
73.40810393219468
 30
0.0
 11
299.5984099065381
 21
73.40810393219468
 31
0.0
  0
LINE
  5
F3A
330
1F
100
AcDbEntity
  8
0
 62
     7
100
AcDbLine
 10
299.5984099065381
 20
16.25810393219465
 30
0.0
 11
299.5984099065381
 21
22.60810393219462
 31
0.0
  0
LINE
  5
F3B
330
1F
100
AcDbEntity
  8
0
 62
     7
100
AcDbLine
 10
299.5984099065381
 20
9.90810393219467
 30
0.0
 11
299.5984099065381
 21
16.25810393219465
 31
0.0
  0
LINE
  5
F3C
330
1F
100
AcDbEntity
  8
0
 62
     7
100
AcDbLine
 10
299.5984099065381
 20
3.558103932194697
 30
0.0
 11
299.5984099065381
 21
9.90810393219467
 31
0.0
  0
LINE
  5
F3D
330
1F
100
AcDbEntity
  8
0
 62
     7
100
AcDbLine
 10
294.8740099065382
 20
3.558103932194697
 30
0.0
 11
299.5984099065381
 21
3.558103932194697
 31
0.0
  0
LINE
  5
F3E
330
1F
100
AcDbEntity
  8
0
 62
     7
100
AcDbLine
 10
294.8740099065381
 20
-4.417496067805306
 30
0.0
 11
294.8740099065382
 21
3.558103932194697
 31
0.0
  0
LINE
  5
F3F
330
1F
100
AcDbEntity
  8
0
 62
     7
100
AcDbLine
 10
286.8984099065382
 20
-4.417496067805306
 30
0.0
 11
294.8740099065381
 21
-4.417496067805306
 31
0.0
  0
LINE
  5
F40
330
1F
100
AcDbEntity
  8
0
 62
     7
100
AcDbLine
 10
294.8740099065382
 20
105.1581039321947
 30
0.0
 11
299.5984099065381
 21
105.1581039321947
 31
0.0
  0
LINE
  5
F41
330
1F
100
AcDbEntity
  8
0
 62
     7
100
AcDbLine
 10
286.8984099065382
 20
117.8581039321947
 30
0.0
 11
286.8984099065382
 21
113.1337039321947
 31
0.0
  0
LINE
  5
F42
330
1F
100
AcDbEntity
  8
0
 62
     7
100
AcDbLine
 10
261.4984099065382
 20
113.1337039321947
 30
0.0
 11
267.8484099065382
 21
113.1337039321947
 31
0.0
  0
LINE
  5
F43
330
1F
100
AcDbEntity
  8
0
 62
     7
100
AcDbLine
 10
255.1484099065381
 20
113.1337039321947
 30
0.0
 11
261.4984099065382
 21
113.1337039321947
 31
0.0
  0
LINE
  5
F44
330
1F
100
AcDbEntity
  8
0
 62
     7
100
AcDbLine
 10
255.1484099065381
 20
113.1337039321947
 30
0.0
 11
255.1484099065381
 21
117.8581039321947
 31
0.0
  0
LINE
  5
F45
330
1F
100
AcDbEntity
  8
0
 62
     7
100
AcDbLine
 10
267.8484099065382
 20
113.1337039321947
 30
0.0
 11
267.8484099065382
 21
117.8581039321947
 31
0.0
  0
LINE
  5
F46
330
1F
100
AcDbEntity
  8
0
 62
     7
100
AcDbLine
 10
255.1484099065381
 20
117.8581039321947
 30
0.0
 11
217.0484099065382
 21
117.8581039321947
 31
0.0
  0
LINE
  5
F47
330
1F
100
AcDbEntity
  8
0
 62
     7
100
AcDbLine
 10
294.8740099065382
 20
22.60810393219462
 30
0.0
 11
299.5984099065381
 21
22.60810393219462
 31
0.0
  0
LINE
  5
F48
330
1F
100
AcDbEntity
  8
0
 62
     7
100
AcDbLine
 10
294.8740099065382
 20
22.60810393219462
 30
0.0
 11
294.8740099065382
 21
28.95810393219465
 31
0.0
  0
LINE
  5
F49
330
1F
100
AcDbEntity
  8
0
 62
     7
100
AcDbLine
 10
294.8740099065382
 20
28.95810393219465
 30
0.0
 11
294.8740099065382
 21
35.30810393219465
 31
0.0
  0
LINE
  5
F4A
330
1F
100
AcDbEntity
  8
0
 62
     7
100
AcDbLine
 10
294.8740099065382
 20
35.30810393219465
 30
0.0
 11
299.5984099065381
 21
35.30810393219465
 31
0.0
  0
LINE
  5
F4B
330
1F
100
AcDbEntity
  8
0
 62
     7
100
AcDbLine
 10
255.1484099065381
 20
-4.417496067805306
 30
0.0
 11
261.4984099065382
 21
-4.417496067805306
 31
0.0
  0
LINE
  5
F4C
330
1F
100
AcDbEntity
  8
0
 62
     7
100
AcDbLine
 10
261.4984099065382
 20
-4.417496067805306
 30
0.0
 11
267.8484099065381
 21
-4.417496067805306
 31
0.0
  0
LINE
  5
F4D
330
1F
100
AcDbEntity
  8
0
 62
     7
100
AcDbLine
 10
267.8484099065381
 20
-9.141896067805305
 30
0.0
 11
267.8484099065381
 21
-4.417496067805306
 31
0.0
  0
LINE
  5
F4E
330
1F
100
AcDbEntity
  8
0
 62
     7
100
AcDbLine
 10
255.1484099065381
 20
-4.417496067805306
 30
0.0
 11
255.1484099065381
 21
-9.141896067805305
 31
0.0
  0
LINE
  5
F4F
330
1F
100
AcDbEntity
  8
0
 62
     7
100
AcDbLine
 10
172.5984099065381
 20
22.60810393219462
 30
0.0
 11
177.3228099065381
 21
22.60810393219462
 31
0.0
  0
LINE
  5
F50
330
1F
100
AcDbEntity
  8
0
 62
     7
100
AcDbLine
 10
177.3228099065381
 20
22.60810393219462
 30
0.0
 11
177.3228099065381
 21
28.95810393219465
 31
0.0
  0
LINE
  5
F51
330
1F
100
AcDbEntity
  8
0
 62
     7
100
AcDbLine
 10
177.3228099065381
 20
28.95810393219465
 30
0.0
 11
177.3228099065381
 21
35.30810393219465
 31
0.0
  0
LINE
  5
F52
330
1F
100
AcDbEntity
  8
0
 62
     7
100
AcDbLine
 10
172.5984099065381
 20
35.30810393219465
 30
0.0
 11
177.3228099065381
 21
35.30810393219465
 31
0.0
  0
LINE
  5
F53
330
1F
100
AcDbEntity
  8
0
 62
     7
100
AcDbLine
 10
299.5984099065381
 20
35.30810393219465
 30
0.0
 11
299.5984099065381
 21
73.40810393219468
 31
0.0
  0
LINE
  5
F54
330
1F
100
AcDbEntity
  8
0
 62
     7
100
AcDbLine
 10
255.1484099065381
 20
-9.141896067805305
 30
0.0
 11
217.0484099065381
 21
-9.141896067805305
 31
0.0
  0
LINE
  5
F55
330
1F
100
AcDbEntity
  8
0
 62
     7
100
AcDbLine
 10
172.5984099065381
 20
35.30810393219465
 30
0.0
 11
172.5984099065381
 21
73.40810393219468
 31
0.0
  0
ENDSEC
  0
SECTION
  2
OBJECTS
  0
DICTIONARY
  5
C
330
0
100
AcDbDictionary
281
     1
  3
ACAD_DETAILVIEWSTYLE
350
DF0
  3
ACAD_GROUP
350
D
  3
ACAD_IMAGE_VARS
350
C93
  3
ACAD_LAYOUT
350
1A
  3
ACAD_MLINESTYLE
350
17
  3
ACAD_PLOTSETTINGS
350
19
  3
ACAD_PLOTSTYLENAME
350
E
  3
ACAD_SCALELIST
350
C68
  3
ACAD_SECTIONVIEWSTYLE
350
DF1
  3
AcDbVariableDictionary
350
66
  3
APPDATA
350
C91
  3
DWGPROPS
350
F57
  0
DICTIONARY
  5
DF0
102
{ACAD_REACTORS
330
C
102
}
330
C
100
AcDbDictionary
281
     1
  0
DICTIONARY
  5
D
102
{ACAD_REACTORS
330
C
102
}
330
C
100
AcDbDictionary
281
     1
  0
RASTERVARIABLES
  5
C93
102
{ACAD_REACTORS
330
C
102
}
330
C
100
AcDbRasterVariables
 90
        0
 70
     1
 71
     1
 72
     1
  0
DICTIONARY
  5
1A
102
{ACAD_REACTORS
330
C
102
}
330
C
100
AcDbDictionary
281
     1
  3
Layout1
350
59
  3
Layout2
350
5E
  3
Model
350
22
  0
DICTIONARY
  5
17
102
{ACAD_REACTORS
330
C
102
}
330
C
100
AcDbDictionary
281
     1
  3
Standard
350
18
  0
DICTIONARY
  5
19
102
{ACAD_REACTORS
330
C
102
}
330
C
100
AcDbDictionary
281
     1
  0
ACDBDICTIONARYWDFLT
  5
E
102
{ACAD_REACTORS
330
C
102
}
330
C
100
AcDbDictionary
281
     1
  3
Normal
350
F
100
AcDbDictionaryWithDefault
340
F
  0
DICTIONARY
  5
C68
102
{ACAD_REACTORS
330
C
102
}
330
C
100
AcDbDictionary
281
     1
  3
A0
350
C69
  3
A1
350
C6A
  3
A2
350
C6B
  3
A3
350
C6C
  3
A4
350
C6D
  3
A5
350
C6E
  3
A6
350
C6F
  3
A7
350
C70
  3
A8
350
C71
  3
A9
350
C72
  3
B0
350
C73
  3
B1
350
C74
  3
B2
350
C75
  3
B3
350
C76
  3
B4
350
C77
  3
B5
350
C78
  3
B6
350
C79
  3
B7
350
C7A
  3
B8
350
C7B
  3
B9
350
C7C
  3
C0
350
C7D
  3
C1
350
C7E
  3
C2
350
C7F
  3
C3
350
C80
  3
C4
350
C81
  3
C5
350
C82
  3
C6
350
C83
  3
C7
350
C84
  3
C8
350
C85
  3
C9
350
C86
  3
D0
350
C87
  3
D1
350
C88
  3
D2
350
C89
  0
DICTIONARY
  5
DF1
102
{ACAD_REACTORS
330
C
102
}
330
C
100
AcDbDictionary
281
     1
  0
DICTIONARY
  5
66
102
{ACAD_REACTORS
330
C
102
}
330
C
100
AcDbDictionary
281
     1
  3
DIMASSOC
350
67
  3
HIDETEXT
350
6B
  3
PROJECTNAME
350
243
  0
DICTIONARY
  5
C91
102
{ACAD_REACTORS
330
C
102
}
330
C
100
AcDbDictionary
281
     1
  0
XRECORD
  5
F57
102
{ACAD_REACTORS
330
C
102
}
330
C
100
AcDbXrecord
280
     1
  1
DWGPROPS COOKIE
  2

  3

  4

  6

  7

  8
Ray
  9

300
=
301
=
302
=
303
=
304
=
305
=
306
=
307
=
308
=
309
=
 40
0.0
 41
2455575.909847708
 42
2458126.661843345
  1

 90
        0
  0
LAYOUT
  5
59
102
{ACAD_REACTORS
330
1A
102
}
330
1A
100
AcDbPlotSettings
  1

  2
None
  4

  6

 40
0.0
 41
0.0
 42
0.0
 43
0.0
 44
0.0
 45
0.0
 46
0.0
 47
0.0
 48
0.0
 49
0.0
140
0.0
141
0.0
142
1.0
143
1.0
 70
   688
 72
     0
 73
     0
 74
     5
  7

 75
    16
147
1.0
148
0.0
149
0.0
100
AcDbLayout
  1
Layout1
 70
     1
 71
     1
 10
0.0
 20
0.0
 11
12.0
 21
9.0
 12
0.0
 22
0.0
 32
0.0
 14
0.0
 24
0.0
 34
0.0
 15
0.0
 25
0.0
 35
0.0
146
0.0
 13
0.0
 23
0.0
 33
0.0
 16
1.0
 26
0.0
 36
0.0
 17
0.0
 27
1.0
 37
0.0
 76
     0
330
58
  0
LAYOUT
  5
5E
102
{ACAD_REACTORS
330
1A
102
}
330
1A
100
AcDbPlotSettings
  1

  2
None
  4

  6

 40
0.0
 41
0.0
 42
0.0
 43
0.0
 44
0.0
 45
0.0
 46
0.0
 47
0.0
 48
0.0
 49
0.0
140
0.0
141
0.0
142
1.0
143
1.0
 70
   688
 72
     0
 73
     0
 74
     5
  7

 75
    16
147
1.0
148
0.0
149
0.0
100
AcDbLayout
  1
Layout2
 70
     1
 71
     2
 10
0.0
 20
0.0
 11
12.0
 21
9.0
 12
0.0
 22
0.0
 32
0.0
 14
0.0
 24
0.0
 34
0.0
 15
0.0
 25
0.0
 35
0.0
146
0.0
 13
0.0
 23
0.0
 33
0.0
 16
1.0
 26
0.0
 36
0.0
 17
0.0
 27
1.0
 37
0.0
 76
     0
330
5D
  0
LAYOUT
  5
22
102
{ACAD_REACTORS
330
1A
102
}
330
1A
100
AcDbPlotSettings
  1

  2
none_device
  4
ANSI_A_(8.50_x_11.00_Inches)
  6

 40
6.349999904632567
 41
19.04999923706055
 42
6.350006103515625
 43
19.04998779296875
 44
215.8999938964844
 45
279.3999938964844
 46
0.0
 47
0.0
 48
0.0
 49
0.0
140
0.0
141
0.0
142
1.0
143
2.584895464708373
 70
 11952
 72
     0
 73
     1
 74
     0
  7

 75
     0
147
0.3868628397755418
148
0.0
149
0.0
100
AcDbLayout
  1
Model
 70
     1
 71
     0
 10
0.0
 20
0.0
 11
12.0
 21
9.0
 12
0.0
 22
0.0
 32
0.0
 14
41.91270747988167
 24
-10.17046623456557
 34
0.0
 15
432.2281945276502
 25
262.6986373039017
 35
0.0
146
0.0
 13
0.0
 23
0.0
 33
0.0
 16
1.0
 26
0.0
 36
0.0
 17
0.0
 27
1.0
 37
0.0
 76
     0
330
1F
331
C4E
  0
MLINESTYLE
  5
18
102
{ACAD_REACTORS
330
17
102
}
330
17
100
AcDbMlineStyle
  2
STANDARD
 70
     0
  3

 62
   256
 51
90.0
 52
90.0
 71
     2
 49
0.5
 62
   256
  6
BYLAYER
 49
-0.5
 62
   256
  6
BYLAYER
  0
ACDBPLACEHOLDER
  5
F
102
{ACAD_REACTORS
330
E
102
}
330
E
  0
SCALE
  5
C69
102
{ACAD_REACTORS
330
C68
102
}
330
C68
100
AcDbScale
 70
     0
300
1:1
140
1.0
141
1.0
290
     1
  0
SCALE
  5
C6A
102
{ACAD_REACTORS
330
C68
102
}
330
C68
100
AcDbScale
 70
     0
300
1:2
140
1.0
141
2.0
290
     0
  0
SCALE
  5
C6B
102
{ACAD_REACTORS
330
C68
102
}
330
C68
100
AcDbScale
 70
     0
300
1:4
140
1.0
141
4.0
290
     0
  0
SCALE
  5
C6C
102
{ACAD_REACTORS
330
C68
102
}
330
C68
100
AcDbScale
 70
     0
300
1:5
140
1.0
141
5.0
290
     0
  0
SCALE
  5
C6D
102
{ACAD_REACTORS
330
C68
102
}
330
C68
100
AcDbScale
 70
     0
300
1:8
140
1.0
141
8.0
290
     0
  0
SCALE
  5
C6E
102
{ACAD_REACTORS
330
C68
102
}
330
C68
100
AcDbScale
 70
     0
300
1:10
140
1.0
141
10.0
290
     0
  0
SCALE
  5
C6F
102
{ACAD_REACTORS
330
C68
102
}
330
C68
100
AcDbScale
 70
     0
300
1:16
140
1.0
141
16.0
290
     0
  0
SCALE
  5
C70
102
{ACAD_REACTORS
330
C68
102
}
330
C68
100
AcDbScale
 70
     0
300
1:20
140
1.0
141
20.0
290
     0
  0
SCALE
  5
C71
102
{ACAD_REACTORS
330
C68
102
}
330
C68
100
AcDbScale
 70
     0
300
1:30
140
1.0
141
30.0
290
     0
  0
SCALE
  5
C72
102
{ACAD_REACTORS
330
C68
102
}
330
C68
100
AcDbScale
 70
     0
300
1:40
140
1.0
141
40.0
290
     0
  0
SCALE
  5
C73
102
{ACAD_REACTORS
330
C68
102
}
330
C68
100
AcDbScale
 70
     0
300
1:50
140
1.0
141
50.0
290
     0
  0
SCALE
  5
C74
102
{ACAD_REACTORS
330
C68
102
}
330
C68
100
AcDbScale
 70
     0
300
1:100
140
1.0
141
100.0
290
     0
  0
SCALE
  5
C75
102
{ACAD_REACTORS
330
C68
102
}
330
C68
100
AcDbScale
 70
     0
300
2:1
140
2.0
141
1.0
290
     0
  0
SCALE
  5
C76
102
{ACAD_REACTORS
330
C68
102
}
330
C68
100
AcDbScale
 70
     0
300
4:1
140
4.0
141
1.0
290
     0
  0
SCALE
  5
C77
102
{ACAD_REACTORS
330
C68
102
}
330
C68
100
AcDbScale
 70
     0
300
8:1
140
8.0
141
1.0
290
     0
  0
SCALE
  5
C78
102
{ACAD_REACTORS
330
C68
102
}
330
C68
100
AcDbScale
 70
     0
300
10:1
140
10.0
141
1.0
290
     0
  0
SCALE
  5
C79
102
{ACAD_REACTORS
330
C68
102
}
330
C68
100
AcDbScale
 70
     0
300
100:1
140
100.0
141
1.0
290
     0
  0
SCALE
  5
C7A
102
{ACAD_REACTORS
330
C68
102
}
330
C68
100
AcDbScale
 70
     0
300
1/128" = 1'-0"
140
0.0078125
141
12.0
290
     0
  0
SCALE
  5
C7B
102
{ACAD_REACTORS
330
C68
102
}
330
C68
100
AcDbScale
 70
     0
300
1/64" = 1'-0"
140
0.015625
141
12.0
290
     0
  0
SCALE
  5
C7C
102
{ACAD_REACTORS
330
C68
102
}
330
C68
100
AcDbScale
 70
     0
300
1/32" = 1'-0"
140
0.03125
141
12.0
290
     0
  0
SCALE
  5
C7D
102
{ACAD_REACTORS
330
C68
102
}
330
C68
100
AcDbScale
 70
     0
300
1/16" = 1'-0"
140
0.0625
141
12.0
290
     0
  0
SCALE
  5
C7E
102
{ACAD_REACTORS
330
C68
102
}
330
C68
100
AcDbScale
 70
     0
300
3/32" = 1'-0"
140
0.09375
141
12.0
290
     0
  0
SCALE
  5
C7F
102
{ACAD_REACTORS
330
C68
102
}
330
C68
100
AcDbScale
 70
     0
300
1/8" = 1'-0"
140
0.125
141
12.0
290
     0
  0
SCALE
  5
C80
102
{ACAD_REACTORS
330
C68
102
}
330
C68
100
AcDbScale
 70
     0
300
3/16" = 1'-0"
140
0.1875
141
12.0
290
     0
  0
SCALE
  5
C81
102
{ACAD_REACTORS
330
C68
102
}
330
C68
100
AcDbScale
 70
     0
300
1/4" = 1'-0"
140
0.25
141
12.0
290
     0
  0
SCALE
  5
C82
102
{ACAD_REACTORS
330
C68
102
}
330
C68
100
AcDbScale
 70
     0
300
3/8" = 1'-0"
140
0.375
141
12.0
290
     0
  0
SCALE
  5
C83
102
{ACAD_REACTORS
330
C68
102
}
330
C68
100
AcDbScale
 70
     0
300
1/2" = 1'-0"
140
0.5
141
12.0
290
     0
  0
SCALE
  5
C84
102
{ACAD_REACTORS
330
C68
102
}
330
C68
100
AcDbScale
 70
     0
300
3/4" = 1'-0"
140
0.75
141
12.0
290
     0
  0
SCALE
  5
C85
102
{ACAD_REACTORS
330
C68
102
}
330
C68
100
AcDbScale
 70
     0
300
1" = 1'-0"
140
1.0
141
12.0
290
     0
  0
SCALE
  5
C86
102
{ACAD_REACTORS
330
C68
102
}
330
C68
100
AcDbScale
 70
     0
300
1-1/2" = 1'-0"
140
1.5
141
12.0
290
     0
  0
SCALE
  5
C87
102
{ACAD_REACTORS
330
C68
102
}
330
C68
100
AcDbScale
 70
     0
300
3" = 1'-0"
140
3.0
141
12.0
290
     0
  0
SCALE
  5
C88
102
{ACAD_REACTORS
330
C68
102
}
330
C68
100
AcDbScale
 70
     0
300
6" = 1'-0"
140
6.0
141
12.0
290
     0
  0
SCALE
  5
C89
102
{ACAD_REACTORS
330
C68
102
}
330
C68
100
AcDbScale
 70
     0
300
1'-0" = 1'-0"
140
12.0
141
12.0
290
     0
  0
DICTIONARYVAR
  5
67
102
{ACAD_REACTORS
330
66
102
}
330
66
100
DictionaryVariables
280
     0
  1
2
  0
DICTIONARYVAR
  5
6B
102
{ACAD_REACTORS
330
66
102
}
330
66
100
DictionaryVariables
280
     0
  1
1
  0
DICTIONARYVAR
  5
243
102
{ACAD_REACTORS
330
66
102
}
330
66
100
DictionaryVariables
280
     0
  1

  0
ENDSEC
  0
EOF
